<?xml version="1.0" encoding="utf-8"?>
<!-- Generator: Adobe Illustrator 27.0.1, SVG Export Plug-In . SVG Version: 6.00 Build 0)  -->
<svg version="1.1" id="_レイヤー_2" xmlns="http://www.w3.org/2000/svg" xmlns:xlink="http://www.w3.org/1999/xlink" x="0px"
	 y="0px" viewBox="0 0 1992.4 517" style="enable-background:new 0 0 1992.4 517;" xml:space="preserve">
<style type="text/css">
	.st0{fill:#1EB8CB;}
</style>
<g id="Layer_1">
	<g>
		<g>
			<polygon points="0.1,0.1 0.1,349.8 202,0.1 			"/>
			<polygon class="st0" points="350.5,0.1 148.3,350.4 350.5,350.4 			"/>
		</g>
		<g>
			<path d="M489.7,145.2c-8.1,0-31.4,0.2-38.8,0.9c-2-1.6-3.4-5.3-3.4-8.6c6.7,0.9,32.6,1.9,46.1,1.9h11.7v-31.9h-6.1
				c-8.1,0-24.8,0.2-32,0.9c-2-1.6-3.3-5-3.3-8.1c6.7,0.6,26.1,1.4,39.5,1.4h1.9V75h-1.1c-7.8,0-16.1,0.2-23.2,0.9
				c-1.1-0.9-2-2.3-2.5-3.9c-18,13-34.2,18.5-36.1,18.5c-0.5,0-1.4-0.2-1.4-1.1c0-0.6,0.8-1.6,2.5-2.5c29.4-18,55.2-60.5,59-78.1
				c8.4,1.4,28,6.7,28,11.4c0,1.7-1.4,3-4,3.3c16.1,17.9,37.5,32.2,64.9,40.3c0.6,0.2,1.4,0.6,1.4,1.4s-0.8,1.6-1.4,1.9
				c-8.1,3.6-16.2,7.7-19.9,12.6c-0.6,0.9-1.6,1.2-2.5,1.2c-3.7,0-31.6-18-47.3-55.7c-9.5,16.6-23.1,31.5-38.6,43.5
				c6.8,0.5,17.4,0.9,23.9,0.9h16.2c3.6-5.6,9-13.3,10.8-13.3c3.1,0,17.3,12.7,17.3,16.1c0,1.6-1.2,2.7-3.1,2.7H526v26.7h15
				c3-4.5,9.9-14.2,12.4-14.2c1.7,0,18.3,13,18.3,17.1c0,1.7-1.6,2.8-3.4,2.8H526l0.2,31.9H555c2.5-3.9,8.1-11.7,11.8-15.4
				c0.5-0.5,1.1-0.5,1.7-0.5c2.8,0,19.5,14.6,19.5,18.9c0,1.7-1.6,2.8-3.4,2.8L489.7,145.2L489.7,145.2z"/>
			<path d="M682.9,106.9c0,7,0.2,13.6,0.2,13.6c0,3.4,0.5,10.6,0.5,12.6v0.3c0,20.2-23.5,22.3-26.7,22.3c-2.3,0-3.6-0.8-4.5-2.7
				c-3-6.5-10.3-9.8-20.8-14.2c-1.9-0.8-2.8-1.7-2.8-2.5c0-0.6,0.6-1.4,2.8-1.4c0.3,0,0.8,0.2,1.4,0.2c16.7,1.4,20.2,1.4,20.8,1.4
				c5.6,0,9-3.3,9-8.3l0.2-21.3h-20.5c0,0-27.3,0.2-35.5,1.1c-2.2-1.7-2.8-5-3.3-8.1c7.2,0.6,28,1.2,42.5,1.2H663
				c0-4.8-0.3-12.4-1.6-16.8c4.8,0.2,9.6,0.8,14,1.4c3.7-4,7.8-9,10.8-13h-17.4c-5.2,0-27.7,0.5-35.5,1.2c-2-1.9-3-4.8-3.4-8.1
				c10.5,0.8,33.6,1.6,39.1,1.6h18.3c2.2-2.5,7.3-7.5,9.2-7.5c0.8,0,3.9,0.5,12.7,7.5c2.3-5,4.7-10.8,6.5-16.2h-87.5v1.6
				c0,17.3-8.4,24.9-17.3,24.9c-7.2,0-10.3-5.5-10.3-10.3c0-5.5,3.9-9.2,7-10.9c8.1-4.8,12.6-9.8,14.9-19.3c0.6-2.3,1.6-3.1,1.9-3.1
				c0.9,0,2.8,4.5,3.6,11.7h60.7c6.8-13.9,10.6-26.9,11.1-36.6c4,0.8,26.4,7.5,26.4,12.3c0,2.3-2.5,3.6-5.9,3.6
				c-0.5,0-0.9-0.2-1.4-0.2c-7,8.3-15.1,15.4-22.6,20.8h19.2c4.2-5,7.2-7.7,8.6-7.7c2.3,0,20.7,11.2,20.7,17.7c0,3.1-3.4,4.5-8,4.5
				c-0.9,0-1.7,0-2.8-0.2c-5.9,3.7-14.6,8-20.8,10.5c1.7,1.9,2.8,3.6,2.8,5c0,2.8-3.3,4-7.8,4h-1.7c-6.8,2.7-14,5.5-21.3,7.8
				c1.9,0.6,3.1,1.7,3.1,3.1c0,1.7-2.2,3.3-5,3.7c-0.2,1.6-0.3,4-0.3,6.7h27.4C712.5,97,721.6,85,724,85c0.5,0,0.8,0.2,1.2,0.5
				c4.7,3.1,18.3,13.4,18.3,18.2c0,1.2-0.6,3-2.8,3L682.9,106.9L682.9,106.9z M625.9,16.4c-1.1-1.2-1.6-2-1.6-2.3
				c0-0.6,0.5-0.9,1.4-0.9c4.7,0,29.2,5.8,29.2,20.4c0,5.2-3.6,11.2-10.6,11.2c-4,0-7.2-2.7-8.6-7.3C633.4,28,631.4,21.8,625.9,16.4
				L625.9,16.4z M657.2,11c0-0.3,0.6-0.9,1.3-0.9c3.3,0,27,7.7,27,22c0,5.2-3.7,11.5-10.8,11.5c-4.7,0-7.7-3.6-8.6-8.6
				c-2.3-13-3.6-16.4-7.8-21.8C657.4,11.9,657.2,11.5,657.2,11L657.2,11z"/>
			<path d="M838.5,106.9c0,7,0.2,13.6,0.2,13.6c0,3.4,0.5,10.6,0.5,12.6v0.3c0,20.2-23.5,22.3-26.7,22.3c-2.3,0-3.6-0.8-4.5-2.7
				c-3-6.5-10.3-9.8-20.8-14.2c-1.9-0.8-2.8-1.7-2.8-2.5c0-0.6,0.6-1.4,2.8-1.4c0.3,0,0.8,0.2,1.4,0.2c16.7,1.4,20.2,1.4,20.8,1.4
				c5.6,0,9-3.3,9-8.3l0.2-21.3h-20.5c0,0-27.3,0.2-35.5,1.1c-2.2-1.7-2.8-5-3.3-8.1c7.2,0.6,28,1.2,42.5,1.2h16.8
				c0-4.8-0.3-12.4-1.6-16.8c4.8,0.2,9.6,0.8,14,1.4c3.7-4,7.8-9,10.8-13h-17.4c-5.2,0-27.7,0.5-35.5,1.2c-2-1.9-3-4.8-3.4-8.1
				c10.5,0.8,33.6,1.6,39.1,1.6h18.3c2.2-2.5,7.3-7.5,9.2-7.5c0.8,0,3.9,0.5,12.7,7.5c2.3-5,4.7-10.8,6.5-16.2h-87.4v1.6
				c0,17.3-8.4,24.9-17.3,24.9c-7.2,0-10.3-5.5-10.3-10.3c0-5.5,3.9-9.2,7-10.9c8.1-4.8,12.6-9.8,14.9-19.3c0.6-2.3,1.6-3.1,1.9-3.1
				c0.9,0,2.8,4.5,3.6,11.7h60.7c6.8-13.9,10.6-26.9,11.1-36.6c4,0.8,26.4,7.5,26.4,12.3c0,2.3-2.5,3.6-5.9,3.6
				c-0.5,0-0.9-0.2-1.4-0.2c-7,8.3-15.1,15.4-22.6,20.8h19.2c4.2-5,7.2-7.7,8.6-7.7c2.3,0,20.7,11.2,20.7,17.7c0,3.1-3.4,4.5-8,4.5
				c-0.9,0-1.7,0-2.8-0.2c-5.9,3.7-14.6,8-20.8,10.5c1.7,1.9,2.8,3.6,2.8,5c0,2.8-3.3,4-7.8,4H862c-6.8,2.7-14,5.5-21.3,7.8
				c1.9,0.6,3.1,1.7,3.1,3.1c0,1.7-2.2,3.3-5,3.7c-0.2,1.6-0.3,4-0.3,6.7h27.4C868.1,97,877.3,85,879.6,85c0.5,0,0.8,0.2,1.2,0.5
				c4.7,3.1,18.3,13.4,18.3,18.2c0,1.2-0.6,3-2.8,3L838.5,106.9L838.5,106.9z M781.5,16.4c-1.1-1.2-1.6-2-1.6-2.3
				c0-0.6,0.5-0.9,1.4-0.9c4.7,0,29.2,5.8,29.2,20.4c0,5.2-3.6,11.2-10.6,11.2c-4,0-7.2-2.7-8.6-7.3C789,28,787,21.8,781.5,16.4
				L781.5,16.4z M812.8,11c0-0.3,0.6-0.9,1.2-0.9c3.3,0,27,7.7,27,22c0,5.2-3.7,11.5-10.8,11.5c-4.7,0-7.7-3.6-8.6-8.6
				c-2.3-13-3.6-16.4-7.8-21.8C813,11.9,812.8,11.5,812.8,11L812.8,11z"/>
			<path d="M956.1,104.4c-0.6,5.5-0.9,7.5-1.1,8.4c20.8,4,24.5,11.8,24.5,17.7c0,5.3-3.4,10.3-9,10.3c-3.3,0-6.2-2.2-7.5-5.8
				c-3.6-9.9-4.7-12.4-9.2-17.3c-9.2,27.9-43.3,33.9-43.3,33.9c-1.1,0-1.2-0.5-1.2-0.8s0.8-1.4,2.3-2.2
				c17.6-10.6,24.9-24.9,26.4-42.2c0-0.6,0.2-1.4,0.2-2.2H938c-7,0-17.7,0.5-23.2,1.1c-1.7-2.2-2.7-4.7-2.8-7.8
				c6.1,0.9,10.6,1.4,26.3,1.4v-7.3c0-3.9-0.5-7.3-1.2-10.9c6.7,0,17.1,1.1,20.5,1.7c2.7,0.5,4.2,1.9,4.2,3.6c0,2-2.2,3.9-5.2,4.4
				c0,2-0.2,5.3-0.3,8.6h3.1c1.9-3.3,8.1-12.3,9.8-12.3c0.6,0,1.1,0.2,1.2,0.5c5.9,3.7,13.7,11.2,13.7,14.2c0,1.9-1.4,3-3.3,3
				L956.1,104.4L956.1,104.4z M956,47.9v5.5c22.9,3.3,24.6,12.9,24.6,16.5s-3.1,8.7-7.8,8.7c-3.1,0-5.9-2.5-7.3-5.2
				c-4.4-10.2-7-13.3-9.5-15.2c0,3.7,0.3,8.9,0.3,10.3c0.2,2,0.2,4.8,0.2,6.1c0,4.7-8.3,5.3-11.2,5.3c-3.7,0-5.6-1.6-5.6-4.4
				c0-0.3,0.6-9.5,0.6-9.6l0.2-2.2c-12.1,15.4-28.2,22.1-29.2,22.1c-0.5,0-0.9-0.5-0.9-0.9c0-0.6,0.3-1.1,0.8-1.6
				c9.8-9.2,18.5-23.2,23.2-35.3c-6.1,0-14.6,0.5-19.3,0.9c-1.6-1.7-2.5-4.4-3-7.2c7.8,0.9,21,1.4,27.4,1.4h0.9V27.7
				c0-4.2-0.5-11.8-1.6-17.6h1.6c4.5,0,14,1.1,16.8,1.7c2.3,0.5,4,1.9,4,3.4c0,1.7-1.7,3.1-4.5,3.7c-0.5,3.9-0.6,15.1-0.6,24.1h7.5
				c1.9-3.3,7.7-10.6,8.9-10.6c2,0,12.6,9.6,12.6,12.7c0,1.7-1.6,2.7-3.1,2.7L956,47.9L956,47.9z M924.6,35.4
				c-0.6-2.7-0.9-5.5-1.7-8.1c-0.8-2.7-2-5.3-4.7-7.7c-0.5-0.5-0.9-1.1-0.9-1.7c0-0.8,0.9-1.1,1.6-1.1c0.5,0,20.1,3.4,20.1,15.4
				c0,6.2-5.2,9-8.1,9C928.2,41.3,925.7,39.2,924.6,35.4L924.6,35.4z M957.1,42c0,0-0.8,0-0.8-0.8c0-0.6,0.5-1.2,0.6-1.9
				c3.1-6.5,5.6-17,6.8-25.5c5.8,1.4,17.6,6.1,17.6,9.6c0,1.6-1.9,2.3-3.7,2.3c-0.5,0-0.9,0-1.6-0.2C971.9,30.4,958.9,42,957.1,42
				L957.1,42z M1047.2,115.1c0,4.2-7.5,5.6-11.5,5.6c-4.5,0-7.8-1.4-7.8-4.5H1005c-0.2,1.2-0.9,2.3-2.2,3.1c6.2,3,17.9,10.3,17.9,14
				c0,1.9-1.6,2.8-3.7,2.8c-0.9,0-2.2-0.2-3.6-0.6c-24.2,16.1-51.7,19.3-53.6,19.3c-1.2,0-1.9-0.6-1.9-0.9c0-0.5,0.8-1.2,2.5-2
				c15.5-6.2,34.2-21.7,39.4-31.4c-1.9,0.6-4.4,0.9-6.4,0.9c-3.4,0-7.3-1.1-7.3-4.8v-0.3c0.3-4,0.9-20.5,0.9-28.6V59.8
				c0-6.1-0.5-17.1-1.4-23.9c5.9,1.6,13.7,4.8,18.2,7.2h0.2c1.1-6.1,1.9-13,2-18.2c-7.7,0.2-17.6,0.5-22.3,1.1
				c-1.4-2.2-2.8-4.5-3-7.7c5.2,0.8,23.2,1.2,32.2,1.2h16.2c1.7-2.7,7.2-9.2,10.3-11.8c0.5-0.3,0.8-0.5,1.3-0.5s0.8,0,0.9,0.3
				c5.8,2.8,16.4,11.1,16.4,14.3c0,1.6-0.8,3-3.1,3h-27.2c-4.5,6.5-10.5,13.1-16.1,18.2h15.1c1.1-1.6,6.5-8.1,7.8-8.1
				c0.9,0,16.7,7.3,16.7,12.4c0,1.9-1.6,3.1-4.8,4c-0.2,3.9-0.3,10.9-0.3,17.7c0,9.5,0.2,18.7,0.2,18.7
				C1046.5,103.9,1047.1,114.1,1047.2,115.1L1047.2,115.1L1047.2,115.1z M1028.3,48.1h-23.2c0,3.4-0.2,9.5-0.2,16.4h23.3
				C1028.3,64.5,1028.3,48.1,1028.3,48.1z M1028.3,69.7H1005V87h23.3V69.7z M1004.8,92.1c0,4.5,0.2,13.4,0.2,15.4v3.6h22.9
				c0-1.1,0.2-2.2,0.2-3.4c0-3,0.2-9.6,0.2-15.5L1004.8,92.1L1004.8,92.1z M1038.6,147.7c-0.8-1.7-1.7-3.7-2.8-5.6
				c-0.3-0.8-5-10.9-16.5-17.9c-1.6-0.9-2-1.6-2-2c0-0.3,0.5-0.9,1.6-0.9c0.8,0,37.8,3.1,37.8,20.7c0,6.5-4.5,11.2-9.6,11.2
				C1043.6,153.2,1040.5,151.3,1038.6,147.7L1038.6,147.7z"/>
			<path d="M1123.2,82.2c0-8.7,7-15.8,15.8-15.8c8.7,0,15.8,7,15.8,15.8s-7,15.8-15.8,15.8C1130.1,97.9,1123.2,90.9,1123.2,82.2z"/>
			<path d="M1331,109.4v5.3c0,4.2,0.3,13.7,0.5,17.6v1.1c0,17.4-16.5,21.8-26,21.8c-2.3,0-3.7-0.8-4.7-2.8c-2.5-6.2-9.6-9.8-17.1-13
				c-0.6,0.2-1.4,0.3-2,0.3c-4.2,0-8-2.7-12.3-10.6c-5.3-7.7-8-10.3-14.3-13.6c-1.2-0.8-1.7-1.4-1.7-1.9c0-0.6,0.9-1.2,2.8-1.2h1.4
				c19.6,0,33.9,4.7,33.9,16.4c0,2.7-0.8,5.3-2.7,7.3c3.6,0.3,10.3,1.1,12.7,1.1c6.4,0,9.9-3.1,9.9-8.1v-19.6h-44.5
				c-7.5,0-34.7,0.6-39.8,1.2c-2-1.6-3.7-5.6-3.9-8.4c5.8,0.8,36.7,1.7,47.3,1.7h40.9V90h-47.6v2c0,3.9-7.2,5.8-12.7,5.8
				c-4.5,0-7.7-1.6-7.7-5v-0.5c0.2-0.6,0.8-7,0.8-21.3V56.7c0-4.7-0.5-14.3-1.6-19.5c7.3,1.6,16.8,5.5,21.8,8.1h20.8V32.7h-17.4
				c-5.3,0-30.1,0.5-38.6,1.2c-2-1.7-3.7-4.8-3.7-7.2v-1.1c7.2,0.9,30.4,1.6,45.1,1.6h14.6c0-5.2-0.5-11.4-1.6-17.6
				c21.5,0.6,26.9,2.5,26.9,5.8c0,2-2.2,3.7-5.9,4.4c-0.2,1.4-0.2,4-0.2,7.5h30.7c0.8-1.1,2.2-3.4,4-6.1c3.4-4.7,6.4-8.1,7.7-8.1
				c3.6,0,19.2,13,19.2,16.7c0,1.6-1.1,3-3.3,3h-58.2c0,3.9-0.2,8.1-0.2,12.6h22.1c3.7-4.5,6.5-7.8,8.3-7.8c0.8,0,18,7,18,12.7
				c0,2-1.9,3.4-5.3,4.4c-0.5,3.6-0.5,8.1-0.5,10.8v2.3c0,2.3,0.5,9.5,0.5,12.1c0,1.7,0.3,5,0.3,5.8v0.2c0,1.4-0.8,5.9-12.7,5.9
				c-1.7,0-3.1-0.2-4.2-0.5V104h8c2.5-3.9,9.6-14.2,11.8-14.2c3.7,0,17.9,13.3,17.9,16.7c0,2-1.7,3-3.4,3L1331,109.4L1331,109.4z
				 M1285.3,50.6h-21.8c-0.2,3.7-0.2,9.2-0.2,13.7h22V50.6L1285.3,50.6z M1285.3,69.5h-22l0.2,2.7c0.2,2.3,0.2,9.5,0.2,12.7h21.7
				L1285.3,69.5L1285.3,69.5z M1328.1,50.6h-23.6v13.7h23.6V50.6z M1304.4,69.5v15.4h23.3c0-1.4,0.2-3.3,0.2-4.2
				c0-2.3,0.2-8.1,0.2-11.2L1304.4,69.5L1304.4,69.5z"/>
			<path d="M1406.4,149.4c0,4.5-8.1,6.1-12.4,6.1c-4.7,0-8.6-1.2-8.6-4.8v-0.5c0.2-1.9,1.3-36.7,1.3-40.9v-72
				c0-6.8-0.8-20.7-1.9-28.2c8.6,2,17.7,6.1,22.3,8.7h17.6c3.1-3.4,7.3-7.7,8.6-7.7c2.7,0,15.2,7.3,15.2,11.4c0,2-1.9,3.7-5,4.5
				c-0.3,2.5-0.3,6.4-0.3,10.3c0,6.4,0.2,12.6,0.2,12.6c0,3.9,0.3,12.1,0.5,15.1c0.2,2,0.5,6.4,0.5,7.2v0.2c0,4.7-10.2,5.6-12.1,5.6
				c-4,0-7-1.4-7-4.7v-0.2c0-0.6,0.2-3,0.2-5h-19.6c0,20.4,0.3,40.3,0.3,45.4c0,7.5,0.5,29.1,0.5,36.6L1406.4,149.4L1406.4,149.4z
				 M1425.6,23h-19.8c0,3.7-0.2,9.2-0.2,15.9h19.9L1425.6,23L1425.6,23z M1425.6,44.2h-19.9V62h19.8c0-3.4,0.2-8.4,0.2-11.4
				L1425.6,44.2L1425.6,44.2z M1515.3,130.9c0,16.5-17.7,22.9-26.6,22.9c-2,0-3.6-0.8-4.2-2.5c-2.3-7-9.6-11.1-19.8-14.8
				c-1.4-0.6-2.5-1.4-2.5-2.3c0-0.5,0.6-1.2,2.2-1.2h0.8c5.3,0.6,14,1.2,19.3,1.2c7,0,10.6-3.4,10.6-9.3c0.2-17.9,0.2-20.5,0.2-57.6
				h-20.1v3c0,4-6.5,6.1-12,6.1c-4,0-7.5-1.4-7.5-4.7V71c0.9-10.9,0.8-14.6,0.9-23.2l0.2-17c0-5.5-0.5-15.2-1.4-20.8
				c6.8,1.6,15.4,5.2,20.4,8h18c5.9-7.5,7.3-8.6,9-8.6c3.4,0,17.1,8.9,17.1,13c0,2-1.9,3.7-5.2,4.7c-0.3,4.8-0.3,13.4-0.3,23.5
				c0,20.8,0.3,47.3,0.3,56.1c0,6.1,0.2,17,0.5,23.5L1515.3,130.9L1515.3,130.9z M1495.3,23H1475c0,4-0.2,10.5-0.2,15.9h20.4
				L1495.3,23L1495.3,23z M1495.3,44.2H1475v6.1c0,3.1,0.2,8.4,0.2,11.8h20.1L1495.3,44.2L1495.3,44.2z"/>
			<path d="M1616.7,106.9c0,7,0.2,13.6,0.2,13.6c0,3.4,0.5,10.6,0.5,12.6v0.3c0,20.2-23.5,22.3-26.7,22.3c-2.3,0-3.6-0.8-4.5-2.7
				c-3-6.5-10.3-9.8-20.8-14.2c-1.9-0.8-2.8-1.7-2.8-2.5c0-0.6,0.6-1.4,2.8-1.4c0.3,0,0.8,0.2,1.4,0.2c16.7,1.4,20.2,1.4,20.8,1.4
				c5.6,0,9-3.3,9-8.3l0.2-21.3H1576c0,0-27.3,0.2-35.5,1.1c-2.2-1.7-2.8-5-3.3-8.1c7.2,0.6,28,1.2,42.5,1.2h16.8
				c0-4.8-0.3-12.4-1.6-16.8c4.8,0.2,9.6,0.8,14,1.4c3.7-4,7.8-9,10.8-13h-17.4c-5.2,0-27.7,0.5-35.5,1.2c-2-1.9-3-4.8-3.4-8.1
				c10.5,0.8,33.6,1.6,39.1,1.6h18.3c2.2-2.5,7.3-7.5,9.2-7.5c0.8,0,3.9,0.5,12.7,7.5c2.3-5,4.7-10.8,6.5-16.2h-87.4v1.6
				c0,17.3-8.4,24.9-17.3,24.9c-7.2,0-10.3-5.5-10.3-10.3c0-5.5,3.9-9.2,7-10.9c8.1-4.8,12.6-9.8,14.9-19.3c0.6-2.3,1.6-3.1,1.9-3.1
				c0.9,0,2.8,4.5,3.6,11.7h60.7c6.8-13.9,10.6-26.9,11.1-36.6c4,0.8,26.4,7.5,26.4,12.3c0,2.3-2.5,3.6-5.9,3.6
				c-0.5,0-0.9-0.2-1.4-0.2c-7,8.3-15.1,15.4-22.6,20.8h19.2c4.2-5,7.2-7.7,8.6-7.7c2.3,0,20.7,11.2,20.7,17.7c0,3.1-3.4,4.5-8,4.5
				c-0.9,0-1.7,0-2.8-0.2c-5.9,3.7-14.6,8-20.8,10.5c1.7,1.9,2.8,3.6,2.8,5c0,2.8-3.3,4-7.8,4h-1.7c-6.8,2.7-14,5.5-21.3,7.8
				c1.9,0.6,3.1,1.7,3.1,3.1c0,1.7-2.2,3.3-5,3.7c-0.2,1.6-0.3,4-0.3,6.7h27.4c2.2-3.9,11.4-15.9,13.7-15.9c0.5,0,0.8,0.2,1.2,0.5
				c4.7,3.1,18.3,13.4,18.3,18.2c0,1.2-0.6,3-2.8,3L1616.7,106.9L1616.7,106.9z M1559.7,16.4c-1.1-1.2-1.6-2-1.6-2.3
				c0-0.6,0.5-0.9,1.4-0.9c4.7,0,29.2,5.8,29.2,20.4c0,5.2-3.6,11.2-10.6,11.2c-4,0-7.2-2.7-8.6-7.3
				C1567.1,28,1565.2,21.8,1559.7,16.4L1559.7,16.4z M1591,11c0-0.3,0.6-0.9,1.3-0.9c3.3,0,27,7.7,27,22c0,5.2-3.7,11.5-10.8,11.5
				c-4.7,0-7.7-3.6-8.6-8.6c-2.3-13-3.6-16.4-7.8-21.8C1591.2,11.9,1591,11.5,1591,11L1591,11z"/>
			<path d="M1803.3,147.7c0,5.8-12.3,6.1-13,6.1c-4.8,0-7.3-1.7-7.3-5.2V148c0.9-21,0.9-27.7,0.9-31.6v-6.7
				c-6.1,0-16.1,0.5-21.8,0.9c-1.6-1.4-3-4-3.3-6.5c-0.6,0.3-1.4,0.6-2.2,0.8c-0.2,2-0.2,4.5-0.2,7c0,5.2,0.2,9.8,0.2,9.8
				c0,2.5,0.5,13.9,0.5,15.5s0.3,5.5,0.3,6.2c0,4.5-9.3,5.6-12.1,5.6c-4,0-6.5-1.4-6.5-4.5v-0.2c0.2-1.1,0.2-4.4,0.2-6.1v-0.5h-13.7
				c0,1.9,0.2,3.6,0.2,4c0,0.8,0.2,4.5,0.2,5.2c0,4.8-8.7,5.8-11.7,5.8c-3.6,0-7.3-1.1-7.3-4.4v-0.5c1.1-9.6,1.1-18.5,1.1-21
				l0.2-14.5c-8.6,11.5-19,20.5-20.8,20.5c-0.5,0-1.2-0.2-1.2-1.1c0-0.6,0.3-1.2,1.2-2.3c11.1-14.8,17.4-32.2,21.1-51.7
				c-3.7,0.2-7.8,0.3-10.9,0.6c-1.7-1.4-3-4.8-3.1-7.5c3.4,0.5,9.6,0.8,15.1,1.1c0.9-6.8,1.7-13.7,2.2-20.8
				c-6.4,0.2-12.3,0.5-19.3,1.2c-1.6-1.1-3.3-5.2-3.3-6.7v-0.9c5.5,0.5,14.9,0.9,22.9,1.1c0.2-5.2,0.3-10.2,0.3-15.4v-5.3
				c-4.7,0-9.8,0.3-14.2,0.9c-1.7-1.4-3-4.8-3.1-7.5c5.8,0.8,21.3,1.4,23,1.4h18.9c3-3.7,7-8,8.6-8c0.2,0,0.6,0,1.1,0.2
				c1.2,0.6,14,8.1,14,12c0,2-1.7,3.3-5,4.4c-0.2,2.5-0.3,7-0.3,12v4.8c2.7-8.7,3.9-10.5,5.5-10.5c1.2,0,5.3,6.8,6.4,8.7
				c5.9,0.5,13.6,0.6,24.1,0.6h4.2c2.7-13.6,4.5-22.9,4.5-35c2.7,0.5,24.9,5,24.9,10.2c0,2-2.3,3.1-5.8,3.1h-0.5
				c-4.7,7.8-10.6,15.4-16.8,21.8h6.8c1.7-3,7.8-12.1,9.8-12.1c0.3,0,0.6,0,0.9,0.3c4.4,2.3,14.3,10.6,14.3,14.2c0,1.6-1.1,3-3.1,3
				h-27.3v23.8h2.8c1.4-2.5,7.8-12.4,9.6-12.4c2.3,0,15.1,10.9,15.1,14.6c0,1.6-1.3,3.1-3.3,3.1h-24.2v25.5h6.1
				c1.9-3.3,9-13.6,10.8-13.6c2,0,16.4,11.7,16.4,15.8c0,1.6-0.9,3.1-3.3,3.1h-29.9v5.9c0,4.4,0,13.9,0.2,19.9c0,2,0.2,9,0.3,11.8
				L1803.3,147.7L1803.3,147.7z M1783.9,78.9c-5.5,0.2-12.3,0.5-17.6,1.1c-1.7-1.6-3.3-4.7-3.3-6.5v-0.9c5.9,0.6,11.8,0.8,20.8,0.9
				V49.8c-4.7,0.2-10.8,0.3-15.9,0.8c-0.5,0.5-1.2,0.8-2,0.8h-11.1c0,4.2,0.2,7.3,0.2,7.3c0,2.5,0.3,11.8,0.5,13.6
				c0,1.6,0.3,4.7,0.3,5.5V78c0,4.4-6.7,5.6-11.8,5.6c-4.2,0-6.5-1.4-6.5-4.4v-0.3l0.2-0.9H1724c-1.3,4.7-2.8,9.2-4.4,13.6
				c-0.3,0.3-0.5,0.8-0.6,1.2c2.8,1.1,5.5,2.5,7.7,3.7h11.1c3.4-4.2,6.8-7.7,8-7.7c0.2,0,16.1,6.1,16.1,11.8c0,1.1-0.6,2-1.6,2.8
				c6.2,0.6,13.7,1.1,23.8,1.1V78.9H1783.9z M1737.9,72.6c0-1.9,0.2-9.6,0.2-12.7v-8.5h-9.3c-0.8,7.5-2,14.6-3.4,21.3L1737.9,72.6
				L1737.9,72.6L1737.9,72.6z M1739.1,101.5h-13.9v31.3h13.7c0-3.6,0.2-7.8,0.2-9.3L1739.1,101.5L1739.1,101.5z M1738,25.4h-8
				c-0.2,7.3-0.5,14-1.1,20.7h9L1738,25.4L1738,25.4z M1766.2,15.7c-0.9-1.1-1.2-1.7-1.2-2c0-0.9,0.9-1.1,1.4-1.1
				c1.2,0,26.4,5,26.4,19.5c0,5.5-3.6,11.4-10.5,11.4c-3.7,0-7-2.7-8.1-7.7C1772.3,24.9,1770.2,19.9,1766.2,15.7L1766.2,15.7z"/>
			<path d="M1901.3,82.2c0-8.7,7-15.8,15.8-15.8s15.8,7,15.8,15.8s-7,15.8-15.8,15.8C1908.2,97.9,1901.3,90.9,1901.3,82.2z"/>
			<path d="M558.8,261.5c-12.4,5-26,9.5-38.9,12.6v0.6c0,2.5-0.9,4.7-2.8,4.7c-4.7,0-10.2-21.5-10.5-23.2c3.4,0.6,6.7,0.9,9.5,1.1
				c2.3,0,5,0.2,7.5,0.2c1.7-6.2,5.3-22.1,5.3-30.7v-1.4C514,245,499.5,252,497.5,252.8c4.4,3.6,8.1,8.3,8.1,13.9
				s-4.2,10.5-9.6,10.5c-4.2,0-6.5-3.7-6.7-7.8c0-1.1-0.2-2.5-0.3-4c-1.2,0.6-2.7,1.1-3.9,1.6v38c0,1.4,0.8,22.4,0.8,30.4v0.2
				c0,3.9-4.8,5.9-11.7,5.9c-4.8,0-7-1.7-7-4.8v-0.4c0.2-2.8,0.5-7,0.5-10.8c0-3.7,0.2-12.6,0.2-19.5v-14.2
				c-0.5,0.2-1.1,0.3-1.6,0.3c-7.2,23.8-19.9,40.3-22.3,40.3c-0.8,0-1.2-0.6-1.2-1.4c0-0.5,0.2-1.1,0.3-1.4c6.7-20.5,7-40.8,7-43
				c0-1.6,0-3.3-0.3-5.2c6.7,0.9,14.6,3,18,4.4v-13.1c-4.2,1.2-8.1,2.5-11.7,3.4c0,2.8-1.1,5.5-3.1,5.5c-3.6,0-8-14.6-9-21
				c3.3,0.2,6.5,0.5,8.9,0.5h6.7c2.5-3.6,4.8-7.5,7.2-11.4c-1.6,1.1-3.4,1.7-4.8,1.7c-3.7,0-6.8-3-7.8-6.5
				c-2.5-9.8-3.6-13.4-8.9-17.9c-0.9-0.8-1.4-1.4-1.4-1.9s0.6-1.1,1.7-1.1c3.9,0,9.6,2,13,3.3c5.9-17.1,5.9-27.7,5.9-29.2v-2.3
				c3,0.5,25.4,5.2,25.4,10.2c0,1.9-2,2.8-4.8,2.8c-0.5,0-0.9-0.2-1.4-0.2c-5.8,7.7-13,15.8-19.6,21.7c6.1,3.9,7,8.1,7,11.1v0.6
				c5.5-10.8,9.3-21.1,9.6-26.3c6.2,1.7,22.7,7.3,22.7,12.3c0,1.7-1.9,2.7-4,2.7c-0.3,0-0.8,0-1.1-0.2c-0.3,0-0.6,0-0.9-0.2
				c-9.8,11.7-20.1,22.4-30.4,31c7-0.2,14.3-0.5,21.5-1.1c-0.8-3.7-2-7.8-4.4-11.4c-0.5-0.6-0.9-1.4-0.9-2s0.6-0.9,1.1-0.9
				c1.6,0,7,2.2,12,5.9c0-0.5,0.3-0.9,0.9-1.7c12.3-14.6,20.7-39.7,21.1-50.1c6.5,1.6,24.8,6.7,24.8,11.1c0,2.2-2,3.3-4.7,3.3
				c-0.5,0-1.1,0-1.6-0.2c-2.5,3.9-4.8,7.5-7.3,10.8c6.4,1.2,23.8,5,23.8,9.3c0,2-2.3,3.1-5.6,3.1h-0.5c-5,7.7-10.5,14.2-16.5,20.2
				c8.9-0.2,18-0.8,26.6-1.4c-1.4-3.9-3.7-7.8-7.3-11.7c-0.8-0.9-1.1-1.4-1.1-1.9c0-0.3,0.6-0.9,1.2-0.9c1.6,0,27.9,7.5,27.9,22.9
				c0,6.7-4.8,11.4-9.6,11.4c-3,0-4.8-1.1-6.1-3.6c-0.6-1.2-1.2-2.8-1.9-4.7L558.8,261.5L558.8,261.5z M489.6,300.9
				c0-6.2-0.5-12.3-3.7-18.9c-0.3-0.6-0.5-1.2-0.5-1.9c0-0.5,0.2-1.2,1.1-1.2c1.1,0,19.2,10.8,19.2,23.3c0,2.7-1.7,10.9-9.5,10.9
				c-4.4,0-6.5-4-6.5-8.1L489.6,300.9L489.6,300.9z M494.7,322.6c0-3.3,1.7-7,5.3-9c7.3-4.4,11.2-8.9,13.4-18
				c0.5-1.9,1.2-2.5,1.7-2.5c0.8,0,3.1,8,3.1,15.9c0,16.4-8.1,22.9-14.9,22.9C501.9,331.9,494.7,331.5,494.7,322.6L494.7,322.6z
				 M565.4,314.7c0,1.7,0.8,3.1,1.6,3.4c4,2.3,4.7,4.7,4.7,7.2c0,10.3-12.1,13.7-28.5,13.7c-9.5,0-22.7-0.5-22.7-17v-0.5
				c0,0,0.3-18.9,0.3-22.7c0-4.7-0.5-12.3-1.4-16.7c5.6,0.2,15.2,1.7,19.2,2.8c2,0.6,3.4,1.9,3.4,3.6c0,1.6-1.4,2.8-4,3.6
				c-0.6,5.5-0.6,23.2-0.6,23.2v0.8c0,5.6,2.3,6.4,7,6.4c11.1,0,13.1-3.1,16.5-13.6c1.6-5.8,2.2-8.3,3.6-8.3c0.6,0,1.4,0.8,1.4,2.7
				L565.4,314.7L565.4,314.7z M541.6,286.6c-1.9-3.4-4.4-7-8.4-9.8c-1.4-0.9-1.9-1.6-1.9-2s0.6-1.1,1.9-1.1
				c6.5,0,28.2,4.2,28.2,16.8c0,6.1-4.8,10.3-8.7,10.3c-2.5,0-4.8-1.4-6.4-4.4C544.5,293.5,543.5,290,541.6,286.6L541.6,286.6z
				 M549.5,199.1c1.7,0.2,2.8,1.6,3.6,3c0.9,1.6,1.6,3.3,2.5,4.8c7.5,11.7,21.5,22.7,35.3,26.7c0.9,0.3,1.9,0.8,1.9,1.7
				c0,0.6-0.8,1.4-2,1.9c-5.9,2.3-13.6,5.5-16.5,9.6c-0.3,0.6-1.2,1.1-1.9,1.1s-11.2-2.5-21.1-37.3c-0.6-2.5-3-5.5-5.3-6.5
				c-1.1-0.6-1.6-1.2-1.6-2.2c0-1.7,2.3-2.8,4.8-2.8H549.5L549.5,199.1z M572.4,319.2c-3.3-15.1-4.4-17.6-9.6-23.3
				c-0.6-0.8-1.1-1.4-1.1-2c0-0.7,0.6-0.9,1.1-0.9c2.5,0,28,6.8,28,22.7c0,6.4-5.3,11.5-10.3,11.5
				C576.3,327.2,573.4,323.4,572.4,319.2L572.4,319.2z"/>
			<path d="M665.9,261.8c-6.2,0-20.4,0.6-25.4,1.1c-1.7-1.4-3-3.9-3.3-6.7c-19.8,15.1-37.3,21.7-39.7,21.7c-0.5,0-1.4-0.2-1.4-1.1
				c0-0.8,0.9-1.9,2.3-2.7c30.5-19.8,54.6-59.2,59.2-78.7c0,0,28.6,5,28.6,10.6c0,1.9-1.9,3.1-5,3.4c15.4,19.9,38.4,35.3,65.7,42.8
				c0.8,0.2,1.4,0.6,1.4,1.6c0,0.8-0.8,1.4-1.4,1.7c-7.7,3.1-16.7,7.7-20.5,12.7c-0.6,0.9-1.6,1.2-2.5,1.2
				c-4.7,0-31.6-20.4-46.7-57.9c-11.1,18.9-25.4,33.2-38.7,43.6c6.7,0.9,21,1.4,27.4,1.4h9.6c2.7-4.2,9.5-13.7,11.5-13.7
				c3.7,0,17.9,12.7,17.9,16.2c0,1.7-1.2,2.8-3.3,2.8H665.9L665.9,261.8z M719,335.4c0,6.2-13.1,6.7-13.9,6.7
				c-4.2,0-8.1-1.4-8.1-5.2v-0.3c0-0.6,0.2-3.7,0.2-6.4h-50.9c0,2.3,0.2,6.1,0.2,6.7c0,5.8-12.7,6.1-13.1,6.1
				c-4.2,0-8.4-1.4-8.4-4.5V338c0.2-1.6,0.6-5.9,0.6-8.1c0.2-3.7,0.5-12.3,0.5-17.4v-14.8c0-5.3-0.5-16.7-1.7-22.9
				c7.5,2.2,17.3,6.1,23.2,9.3h48.6c2.3-3.6,7.5-8.7,9-8.7c2,0,18.9,8.4,18.9,13.4c0,2-1.9,3.9-5.6,5.3c-0.2,2.3-0.3,5.9-0.3,9.3
				c0,5,0.2,9.6,0.2,9.6c0,4.2,0.3,11.4,0.5,15.2c0,2.2,0.3,5.9,0.3,6.8L719,335.4L719,335.4z M697.5,289.8h-51.2v34.8h51.1
				c0-3.3,0.2-7.7,0.2-9.6L697.5,289.8L697.5,289.8z"/>
			<path d="M838.5,293.7c0,7,0.2,13.6,0.2,13.6c0,3.4,0.5,10.6,0.5,12.6v0.3c0,20.2-23.5,22.3-26.7,22.3c-2.3,0-3.6-0.8-4.5-2.7
				c-3-6.5-10.3-9.8-20.8-14.2c-1.9-0.8-2.8-1.7-2.8-2.5c0-0.6,0.6-1.4,2.8-1.4c0.3,0,0.8,0.2,1.4,0.2c16.7,1.4,20.2,1.4,20.8,1.4
				c5.6,0,9-3.3,9-8.3l0.2-21.3h-20.5c0,0-27.3,0.2-35.5,1.1c-2.2-1.7-2.8-5-3.3-8.1c7.2,0.6,28,1.2,42.5,1.2h16.8
				c0-4.8-0.3-12.4-1.6-16.8c4.8,0.2,9.6,0.8,14,1.4c3.7-4,7.8-9,10.8-13h-17.4c-5.2,0-27.7,0.5-35.5,1.2c-2-1.9-3-4.8-3.4-8.1
				c10.5,0.8,33.6,1.6,39.1,1.6h18.3c2.2-2.5,7.3-7.5,9.2-7.5c0.8,0,3.9,0.5,12.7,7.5c2.3-5,4.7-10.8,6.5-16.2h-87.4v1.6
				c0,17.3-8.4,24.9-17.3,24.9c-7.2,0-10.3-5.5-10.3-10.3c0-5.5,3.9-9.2,7-10.9c8.1-4.8,12.6-9.8,14.9-19.3c0.6-2.3,1.6-3.1,1.9-3.1
				c0.9,0,2.8,4.5,3.6,11.7h60.7c6.8-13.9,10.6-26.9,11.1-36.6c4,0.8,26.4,7.5,26.4,12.3c0,2.3-2.5,3.6-5.9,3.6
				c-0.5,0-0.9-0.2-1.4-0.2c-7,8.3-15.1,15.4-22.6,20.8h19.2c4.2-5,7.2-7.7,8.6-7.7c2.3,0,20.7,11.2,20.7,17.7c0,3.1-3.4,4.5-8,4.5
				c-0.9,0-1.7,0-2.8-0.2c-5.9,3.7-14.6,8-20.8,10.5c1.7,1.9,2.8,3.6,2.8,5c0,2.8-3.3,4-7.8,4H862c-6.8,2.7-14,5.5-21.3,7.8
				c1.9,0.6,3.1,1.7,3.1,3.1c0,1.7-2.2,3.3-5,3.7c-0.2,1.6-0.3,4-0.3,6.7h27.4c2.2-3.9,11.4-15.9,13.7-15.9c0.5,0,0.8,0.2,1.2,0.5
				c4.7,3.1,18.3,13.4,18.3,18.2c0,1.2-0.6,3-2.8,3L838.5,293.7L838.5,293.7z M781.5,203.1c-1.1-1.2-1.6-2-1.6-2.3
				c0-0.6,0.5-0.9,1.4-0.9c4.7,0,29.2,5.8,29.2,20.4c0,5.2-3.6,11.2-10.6,11.2c-4,0-7.2-2.7-8.6-7.3
				C789,214.8,787,208.5,781.5,203.1L781.5,203.1z M812.8,197.8c0-0.3,0.6-0.9,1.2-0.9c3.3,0,27,7.7,27,22c0,5.2-3.7,11.5-10.8,11.5
				c-4.7,0-7.7-3.6-8.6-8.6c-2.3-13-3.6-16.4-7.8-21.8C813,198.6,812.8,198.3,812.8,197.8L812.8,197.8z"/>
			<path d="M1002.4,285c0,4.8-9.3,5.2-9.8,5.2c-3.7,0-5.9-1.2-5.9-3.7v-0.3c0.2-1.6,0.3-3.1,0.3-4.4h-8.1l0.2,2.8v4.7
				c0,4.4-8,5.8-11.1,5.8c-3.6,0-5.8-1.7-5.8-4.7V290c0.2-1.4,0.5-3.7,0.5-6.2c-11.8,12.3-23.6,21.7-35.5,30.1
				c0.2,0.8,0.3,1.4,0.3,2.2c0,2.3-0.8,4.2-2.8,4.2c-3.9,0-12.7-14.5-16.1-23c8.1-0.6,16.2-3.3,19.9-4.5V245
				c-4.7,0-9.8,0.3-13.9,0.9c-1.7-1.6-2.8-4.7-3-7.5c4.4,0.8,10.8,1.2,16.8,1.6v-16.1c0-4.7-0.6-17.6-1.7-23.8
				c5,0,25.8,1.2,25.8,5.8c0,1.9-2.3,3.4-5.6,4.2c-0.3,3.3-0.5,15.2-0.5,28.9c1.7-3.7,5.5-10.8,7-10.8c0.9,0,5.8,5.6,8.3,9.8
				l-0.2-0.8c5.9,1.4,13.7,4.7,17.7,6.8h6.8c2.8-3.6,5.6-6.4,6.4-6.4c0.6,0,13.3,5.9,13.3,10.2c0,1.7-1.4,3.3-4.2,4
				c-0.2,1.6-0.3,4.5-0.3,7.3c0,0,0,8.6,0.6,21.7c0,1.6,0.3,2.2,0.3,4L1002.4,285L1002.4,285z M963.2,256.3c0-3.1-0.2-7.5-0.6-12.3
				c-0.6,0.6-1.4,0.8-2.2,0.8h-13.7c0,15.8,0.2,32.7,0.2,41.2c5.5-2.2,10.8-4.4,16.1-6.8c0.2-3.7,0.3-7.2,0.3-10.2L963.2,256.3
				L963.2,256.3z M964.7,321.2c0,3.3-1.2,5.3-2.7,5.3c-4,0-10.9-16.8-12.4-23.5h2.5c17.1,0,52.3-9.6,56.4-10.8
				c0.6-0.2,2.2-0.5,2.2-0.5c0.5,0,1.4,0.2,1.4,1.1c0,1.7-25.5,18.9-47.3,27.9L964.7,321.2L964.7,321.2z M1056.4,285.1
				c-0.8,5.2-3,22.6-3,28.6c0,4,0.6,7.8,1.9,11.1c0.6,1.4,0.9,3,0.9,4.7c0,5.5-3.7,9.2-9.8,9.2c-10.2,0-19.8-13.1-26-27.7
				c-20.5,22.3-49.6,29.4-51.5,29.4c-1.1,0-1.7-0.5-1.7-1.2c0-0.6,0.8-1.1,1.4-1.6c22.3-10.2,36.6-25.8,46.4-42
				c-6.2-21.1-8-45.8-9-67.3h-16.2c-7,0-24.2,0.2-31.6,0.9c-0.9-1.4-2.8-4.8-2.8-7.5c8.1,0.8,25.7,1.4,36.7,1.4h13.6v-1.2
				c0-18-1.7-21.8-2.5-25.8c2,0,16.8,0.8,22.4,3.6c-0.6-0.5-0.9-0.9-0.9-1.4c0-0.3,0.3-0.9,1.7-0.9c19.8,0,20.7,8.6,20.7,11.2
				c0,1.7-0.5,3.4-1.6,4.8c4.8,3.1,11.5,9.3,11.5,12.3c0,1.6-1.1,2.8-3.4,2.8h-30.4c0.3,17.9,1.6,32.5,3.4,44.5
				c4-11.7,7-23.6,7.3-29.7c5.5,1.4,21.1,7,21.1,11.1c0,2-1.9,3.4-5,3.4c-0.3,0-0.6,0-0.9-0.2c-5,14-10.2,26.6-17,37.5
				c1.7,4.5,6.5,16.8,9.9,16.8c2.3,0,10.9-26.6,11.1-27.3c0.5-1.7,1.3-2.2,1.9-2.2c0.5,0,1.2,0.6,1.2,2.2L1056.4,285.1L1056.4,285.1
				z M987.1,249h-8.4l-0.2,22.1c0,1.4,0.2,3.6,0.2,5.8h8.4V249z M1033.6,223.1c0.9-1.9,2.8-4.4,4.7-6.5c-2.7-0.3-4.7-2.3-5.6-4.8
				c-0.8-2.2-1.2-4.4-2-6.4c-0.8-1.6-1.6-3.1-3.1-4.5c0.2,0.3,0.3,0.8,0.3,1.1c0,1.7-1.7,3-4.5,3.4v17.7H1033.6L1033.6,223.1z"/>
			<path d="M1180.7,334.4c0,5.8-12.3,6.1-13,6.1c-4.8,0-7.3-1.7-7.3-5.2v-0.6c0.9-21,0.9-27.7,0.9-31.6v-6.7
				c-6.1,0-16.1,0.5-21.8,0.9c-1.6-1.4-3-4-3.3-6.5c-0.6,0.3-1.4,0.6-2.2,0.8c-0.2,2-0.2,4.5-0.2,7c0,5.2,0.2,9.8,0.2,9.8
				c0,2.5,0.5,13.9,0.5,15.5s0.3,5.5,0.3,6.2c0,4.5-9.3,5.6-12.1,5.6c-4,0-6.5-1.4-6.5-4.5V331c0.2-1.1,0.2-4.4,0.2-6.1v-0.5h-13.7
				c0,1.9,0.2,3.6,0.2,4c0,0.8,0.2,4.5,0.2,5.2c0,4.8-8.7,5.8-11.7,5.8c-3.6,0-7.3-1.1-7.3-4.4v-0.5c1.1-9.6,1.1-18.5,1.1-21
				l0.2-14.5c-8.6,11.5-19,20.5-20.8,20.5c-0.5,0-1.2-0.2-1.2-1.1c0-0.6,0.3-1.2,1.2-2.3c11.1-14.8,17.4-32.2,21.1-51.7
				c-3.7,0.2-7.8,0.3-10.9,0.6c-1.7-1.4-3-4.8-3.1-7.5c3.4,0.5,9.6,0.8,15.1,1.1c0.9-6.8,1.7-13.7,2.2-20.8
				c-6.4,0.2-12.3,0.5-19.3,1.2c-1.6-1.1-3.3-5.2-3.3-6.7v-0.9c5.5,0.5,14.9,0.9,22.9,1.1c0.2-5.2,0.3-10.2,0.3-15.4v-5.3
				c-4.7,0-9.8,0.3-14.2,0.9c-1.7-1.4-3-4.8-3.1-7.5c5.8,0.8,21.3,1.4,23,1.4h18.9c3-3.7,7-8,8.6-8c0.2,0,0.6,0,1.1,0.2
				c1.2,0.6,14,8.1,14,12c0,2-1.7,3.3-5,4.4c-0.2,2.5-0.3,7-0.3,12v4.8c2.7-8.7,3.9-10.5,5.5-10.5c1.2,0,5.3,6.8,6.4,8.7
				c5.9,0.5,13.6,0.6,24.1,0.6h4.2c2.7-13.6,4.5-22.9,4.5-35c2.7,0.5,24.9,5,24.9,10.2c0,2-2.3,3.1-5.8,3.1h-0.5
				c-4.7,7.8-10.6,15.4-16.8,21.8h6.8c1.7-3,7.8-12.1,9.8-12.1c0.3,0,0.6,0,0.9,0.3c4.4,2.3,14.3,10.6,14.3,14.2c0,1.6-1.1,3-3.1,3
				H1180v23.8h2.8c1.4-2.5,7.8-12.4,9.6-12.4c2.3,0,15.1,10.9,15.1,14.6c0,1.6-1.3,3.1-3.3,3.1H1180v25.5h6.1
				c1.9-3.3,9-13.6,10.8-13.6c2,0,16.4,11.7,16.4,15.8c0,1.6-0.9,3.1-3.3,3.1h-29.8v5.9c0,4.4,0,13.9,0.2,19.9c0,2,0.2,9,0.3,11.8
				V334.4L1180.7,334.4z M1161.4,265.6c-5.5,0.2-12.3,0.5-17.6,1.1c-1.7-1.6-3.3-4.7-3.3-6.5v-0.9c5.9,0.6,11.8,0.8,20.8,0.9v-23.6
				c-4.7,0.2-10.8,0.3-15.9,0.8c-0.5,0.5-1.2,0.8-2,0.8h-11.1c0,4.2,0.2,7.3,0.2,7.3c0,2.5,0.3,11.8,0.5,13.6c0,1.6,0.3,4.7,0.3,5.5
				v0.2c0,4.4-6.7,5.6-11.8,5.6c-4.2,0-6.5-1.4-6.5-4.4v-0.3l0.2-0.9h-13.7c-1.3,4.7-2.8,9.2-4.4,13.6c-0.3,0.3-0.5,0.8-0.6,1.2
				c2.8,1.1,5.5,2.5,7.7,3.7h11.1c3.4-4.2,6.8-7.7,8-7.7c0.2,0,16.1,6.1,16.1,11.8c0,1.1-0.6,2-1.6,2.8c6.2,0.6,13.7,1.1,23.8,1.1
				L1161.4,265.6L1161.4,265.6z M1115.4,259.3c0-1.9,0.2-9.6,0.2-12.7v-8.4h-9.3c-0.8,7.5-2,14.6-3.4,21.3h12.6L1115.4,259.3
				L1115.4,259.3z M1116.6,288.2h-13.9v31.3h13.7c0-3.6,0.2-7.8,0.2-9.3L1116.6,288.2L1116.6,288.2z M1115.5,212.2h-8
				c-0.2,7.3-0.5,14-1.1,20.7h9L1115.5,212.2L1115.5,212.2z M1143.7,202.5c-0.9-1.1-1.3-1.7-1.3-2c0-0.9,0.9-1.1,1.4-1.1
				c1.3,0,26.4,5,26.4,19.5c0,5.5-3.6,11.4-10.5,11.4c-3.7,0-7-2.7-8.1-7.7C1149.8,211.6,1147.7,206.6,1143.7,202.5L1143.7,202.5z"
				/>
			<path d="M1313.6,251.2c2.2,17,5.6,30.2,10.8,40.1c5.9,12,16.1,21.7,20.4,21.7c1.7,0,5-0.5,16.2-29.8c0.8-2,1.7-2.8,2.3-2.8
				s1.4,0.8,1.4,2.3c0,0.3,0,0.9-0.2,1.4c-0.6,3.4-3.6,22.6-3.6,28.5c0,4.5,1.6,9.5,3.3,12.3c1.1,1.6,1.6,3.4,1.6,5.5
				c0,1.7-0.3,10.5-12,10.5c-3.4,0-7-0.8-10.5-2.3c-33.2-15.5-44-52.3-48.4-85.4c-4.4,0.3-19.8,1.9-27.3,3.1
				c-1.6-1.2-2.8-3.6-3.4-5.6c-0.8,0.5-1.7,0.8-2.8,0.9c-0.3,4-0.5,10.9-0.5,17.9c0,12.3,0.3,25.2,0.3,25.2c0,3.7,0,19.5,0.3,28.3
				c0,1.4,0.2,9.2,0.2,10.9c0,6.1-11.4,6.7-13.3,6.7c-4.5,0-7.3-1.7-7.3-5.6c0-1.4,0.6-12,0.6-13.4c0.5-7.2,0.6-23,0.6-26.9v-32
				c-10.9,13.1-20.5,20.5-21.5,20.5c-0.6,0-0.9-0.6-0.9-1.1c0-0.6,0.3-1.6,1.1-2.5c21.5-30.8,30.2-71.7,30.2-82.2
				c9,1.4,28,6.7,28,11.7c0,2.3-2.5,3.6-5.8,3.6h-1.6c-4,9.6-8.9,19.8-14.9,29.4c6.7,1.2,9.9,2.2,9.9,5.2c0,0.5-0.2,0.9-0.5,1.4h0.8
				c7.2,0,19.6-0.6,26.9-1.2c-0.8-6.5-1.4-13.1-1.9-19.2c0-2.3-1.6-21.3-3.3-28.5h2c3.4,0,24.1,0,25.4,4.8c0.2-0.5,0.6-0.8,1.6-0.8
				c2.5,0,29.2,2.8,29.2,17.1c0,3.9-1.4,6.5-3.4,8.4c0.3-0.2,0.5-0.2,0.8-0.2c0.5,0,19.5,9.6,19.5,14.8c0,1.6-0.9,3.1-3.1,3.3
				L1313.6,251.2L1313.6,251.2z M1333.8,243.5c1.4-2.7,6.4-10.5,9.3-13.7c-1.7,1.1-3.7,1.7-5.5,1.7c-3.6,0-6.5-2.2-8.1-5.9
				c-3.3-8.9-6.1-15.2-11.5-19.3c-0.8-0.5-1.1-0.8-1.2-1.1c0,1.7-1.9,3.3-5.3,3.9c0,13.7,0.6,25.8,1.7,36.4L1333.8,243.5
				L1333.8,243.5z"/>
			<path d="M1459.1,266.1c4.4,10.6,9.8,19.5,16.4,26.9c12.1-13.1,15.4-22.1,16.4-25.2c2.7,0.9,23.2,11.5,23.2,17.1
				c0,1.7-1.6,2.8-4,2.8c-1.1,0-2.5-0.2-4.2-0.8c-7.7,4-17.6,8.1-26.4,11.2c11.7,11.1,26.6,18.7,44.5,24.2c0.6,0.2,1.4,0.6,1.4,1.4
				c0,0.9-0.9,1.7-1.9,1.9c-8.4,2.7-18.7,6.7-22.4,11.2c-0.6,0.6-1.6,0.9-2.5,0.9s-1.9-0.3-2.7-0.6c-11.5-6.2-20.7-15.1-27.7-26.7
				c-4.5,4.5-37,19.2-61.5,26.6v0.6c0,3-0.9,5.6-3.1,5.6c-4.5,0-12.1-19.2-13.9-26.6c3,0,4.8,0.2,6.7,0.2c7,0,15.8-0.9,22-1.6v-18.4
				c-21.5,11.2-43.9,15.9-43.9,15.9c-1.1,0-1.6-0.5-1.6-1.1c0-0.3,0.8-1.6,2.3-2.3c23.3-11.2,40.9-25.7,54.9-43.1h-8.3
				c-5.2,0-35,0.6-40,1.2c-1.9-1.6-3.4-5.5-3.6-8.3c5.9,0.9,38.1,1.7,45.4,1.7h14.9v-17h-6.5c-5.2,0-29.7,0.5-34.7,1.1
				c-1.6-1.6-3.4-5.3-3.6-8.1c5.9,0.9,32.6,1.7,40,1.7h4.8v-15.4h-9.3c-5.2,0-34.7,0.5-39.7,1.1c-1.9-1.6-3.4-5.5-3.6-8.3
				c6.1,1.1,37.6,1.9,45,1.9h7.7v-2c0-2.8-0.2-12.1-1.6-19.2h2.2c0.9,0,25.8,0.5,25.8,6.2c0,1.9-2.2,3.3-5.9,4
				c-0.2,2.3-0.3,6.2-0.3,10.9h22.7c1.6-2.3,7.7-10.5,11.7-13.9c0.5-0.3,0.9-0.5,1.4-0.5c2.2,0,18.9,12.3,18.9,16.8
				c0,1.9-1.6,2.8-3.3,2.8H1460v15.4h14.3c2.2-3.3,10.6-13.4,12.3-13.4c1.6,0,18.5,10.5,18.5,15.9c0,1.9-1.7,2.8-3.4,2.8H1460v17h31
				c3-4.5,10.9-14.5,13.1-14.5c2.5,0,19,12.3,19,17c0,1.9-1.7,2.8-3.4,2.8h-60.6V266.1z M1468.1,308.4
				c-6.1-10.9-10.3-23.9-12.7-39.5c-5.3,6.1-11.1,11.2-17,15.8v28.5c9.8-1.1,19.9-2.8,27.9-4.5
				C1467,308.4,1467.5,308.4,1468.1,308.4L1468.1,308.4L1468.1,308.4z"/>
			<path d="M1652.3,335.7c0,5.5-9.9,6.2-13.3,6.2c-5.3,0-8.1-1.4-8.1-4.5v-0.3c0-0.6,0.2-3.3,0.2-5.2h-41.7v4.7
				c0,5.6-11.8,6.1-13.4,6.1c-4.2,0-7.5-1.6-7.5-5.2v-0.6c0.2-1.4,0.8-8.4,1.3-28l0.5-21.5v-4.2c-16.5,5.9-36,11.4-38.1,11.4
				c-0.8,0-1.9-0.3-1.9-1.2c0-0.9,0.8-1.6,2-2c13.1-5.2,25.2-10.5,37.8-17.1c-0.2-2.8-0.5-5.5-0.9-8.7c3.9,0.9,7.3,2.2,10.6,3.4
				c5.2-3,16.4-10.2,22.7-14.9h-31.1c-7.8,0-27.7,0.3-35.1,0.9c-1.7-1.7-3-5-3.1-8.4c8.9,1.2,31.3,1.9,43,1.9h12.1v-22.3h-8.7
				c-5.9,0-19.9,0.3-27.3,0.9c-1.6-1.7-3-4.4-3-6.8v-1.1c8.6,1.2,25.5,1.6,34.4,1.6h4.5v-3.1c0-6.4-0.5-15.1-1.6-21.5
				c5.8,0,20.2,0.9,24.5,2c2.3,0.6,4,1.9,4,3.6c0,2-2.2,3.6-5.9,4.4c-0.2,2.7-0.3,8.3-0.3,14.6h0.8c2.5-4.8,8.6-13.3,10.3-13.3
				c1.9,0,9.2,6.8,14.5,13.6c5.5-7.3,9.2-13.4,11.4-19.6c1.1,0.6,6.7,3.1,12.3,6.4c5.3,3,11.2,7,11.2,9.9c0,1.9-1.7,3.1-4.2,3.1
				c-1.1,0-2.2-0.2-3.6-0.6c-8.9,10.8-19,20.8-28.3,28.2h13.6c2.3-3.4,10.9-14.9,13.1-14.9c2.3,0,19,13,19,17.1
				c0,1.9-1.1,3.4-3.3,3.4h-49c-10.5,7.8-22,14.3-33.8,19.9h37c2.3-3.1,5.3-6.4,7.7-8.4c0.5-0.3,0.9-0.5,1.6-0.5
				c1.9,0,18.3,8.4,18.3,13.7c0,2-1.9,3.9-5.6,5c-0.2,2.3-0.3,6.1-0.3,9.9c0,8.6,0.3,18.3,0.3,18.3c0.3,14.9,0.6,23.3,0.6,23.3
				L1652.3,335.7L1652.3,335.7z M1631.3,305h-41.6v5c0,3.1-0.3,11.7-0.3,16.5h41.7c0-3.9,0.2-10.2,0.2-13L1631.3,305L1631.3,305z
				 M1631.3,279.5h-41.1l-0.5,19.9h41.6V279.5L1631.3,279.5z M1609,248.4c7.3-6.8,14.8-14.2,21.5-22.3h-21.7c0,9,0.2,18.3,0.2,22.1
				V248.4L1609,248.4z"/>
			<path d="M1755.9,259.7c-5.8,0-19,0.5-24.9,1.1c-1.9-1.6-3.3-4.7-3.3-7.8c-20.5,15.1-38.6,21.1-40.3,21.1c-0.5,0-1.4-0.2-1.4-1.1
				c0-0.8,0.9-1.7,2.3-2.5c29.5-19.3,53.9-54.8,58.5-74.8c8.1,1.2,28.6,6.4,28.6,11.1c0,1.7-1.9,3-4.8,3.3
				c15.5,17.1,38.1,31,65.8,38.1c0.8,0.2,1.4,0.6,1.4,1.6c0,0.5-0.6,1.2-1.2,1.7c-7.5,3.3-16.7,8.6-20.2,13.1
				c-0.8,1.1-2,1.2-2.8,1.2c-2.8,0-29.8-14.6-47.3-53.9c-11.2,17.9-25.2,31.3-38.4,41.1c6.4,0.8,20.8,1.4,28,1.4h8.3
				c2.8-4.5,9.8-13.9,11.7-13.9c3.6,0,18,12.7,18,16.2c0,1.6-1.2,3-3.3,3L1755.9,259.7L1755.9,259.7z M1765.9,284.8
				c-7.3,10.8-16.7,21.8-24.8,29.7c16.4-0.6,34.4-1.7,49.3-3c-3.3-5.5-7.8-11.2-14.2-16.2c-1.1-0.8-1.9-1.7-1.9-2.3
				c0-0.9,0.6-1.1,1.4-1.1s45.3,10.5,45.3,32.8c0,10.5-7.2,13.9-11.7,13.9s-8.1-3-10.3-8c-1.6-3.6-3.1-8.3-5.5-13.3
				c-23.8,7.2-55.1,13.7-79.7,17.6c0,3.6-1.2,5.9-3.3,5.9c-4.2,0-9.6-18.3-11.2-26.6c3.3,0.5,7.3,0.6,9.6,0.6c2.8,0,5.8,0.2,9,0.2
				c4.4,0,9.2-0.2,14.2-0.3c2.7-9.3,4.8-20.7,5.9-30.1h-0.5c-8.1,0-28.9,0.5-36.1,1.2c-2.2-1.6-3.1-5.3-3.3-8.3
				c6.7,0.6,30.1,1.4,43.4,1.4h50.1c1.9-2.8,10.9-14.6,13-14.6s19.8,12.4,19.8,17.1c0,1.7-1.2,3.1-3.3,3.1h-55.4v0.3L1765.9,284.8
				L1765.9,284.8z"/>
			<path d="M1866.7,232.8c-5.5,0-15.5,0.3-20.7,0.9c-2-1.7-2.8-4.4-3-7.5c5.9,0.9,19,1.6,26.6,1.6h4.8c4.5-6.4,9.3-12.7,10.9-12.7
				c2,0,16.1,10.6,16.1,15.1c0,2-1.7,2.7-3.4,2.7h-31.3V232.8z M1893.8,330c0,4.5-7.7,6.1-10.9,6.1c-3.9,0-6.2-1.2-6.2-4.4v-0.5
				c0-0.5,0.3-3.1,0.3-5h-8.9v7.7c0,3.4-3.4,5.9-11.4,5.9c-3.6,0-6.8-1.1-6.8-4.7v-0.5c0,0,0.9-9,0.9-20.2V299
				c0-6.1-0.5-12.1-1.6-19.8c6.1,1.9,14.9,5.9,19.8,8.6h6.7c0.9-1.4,5.3-7.5,7.3-7.5s15.2,8.1,15.2,12.1c0,1.7-1.6,3.4-5,4.5
				c-0.2,2-0.3,5-0.3,8c0,4,0.2,7.8,0.2,7.8c0,1.7,0.3,9.5,0.3,11.1C1893.4,325.5,1893.7,329.4,1893.8,330L1893.8,330L1893.8,330z
				 M1867.5,252.3c-5.5,0-9.3,0.3-14.6,0.9c-2-1.4-3-4.7-3.1-7.5c5.8,0.8,11.7,1.6,19.3,1.6h1.4c0.9-1.6,5.5-8.4,9-11.4
				c0.5-0.3,0.8-0.5,1.2-0.5c2.7,0,15.2,10.6,15.2,14.3c0,1.9-1.6,2.5-3.3,2.5L1867.5,252.3L1867.5,252.3z M1867.5,211.8
				c-5.5,0-9.3,0.2-14.6,0.9c-1.9-1.7-2.8-4.7-3-7.5c5.8,0.9,12.6,1.6,18.9,1.6h1.6c0.9-1.6,5.5-8.4,9-11.4c0.5-0.3,0.8-0.5,1.2-0.5
				c0.6,0,0.8,0.2,1.1,0.2c4.7,2.7,14.5,11.2,14.5,14.3c0,1.7-1.7,2.3-3.3,2.3L1867.5,211.8L1867.5,211.8z M1867.5,271.9
				c-5.5,0-9.3,0.2-14.6,0.9c-2-1.6-2.8-4.8-3-7.5c5.8,0.9,11.7,1.6,19.3,1.6h1.1c5.2-7.2,7.2-9.9,9-11.5c0.5-0.3,0.8-0.5,1.2-0.5
				c2.3,0,15.2,9.6,15.2,14.3c0,1.9-1.6,2.7-3.3,2.7H1867.5L1867.5,271.9z M1877.2,292.9h-9.2v28.3h9c0-2.5,0.2-5.8,0.2-7.3V292.9
				L1877.2,292.9z M1988.9,321.2c0,2,0.3,3.7,2.2,6.8c0.9,1.4,1.3,2.8,1.3,4.4c0,4.4-3.4,8.7-9.6,8.7c-7.3,0-17.3-5.5-25.1-14.5
				c-17.1,13-33.3,14.8-33.8,14.8c-0.8,0-1.4-0.2-1.4-1.1c0-0.5,0.5-1.1,1.7-1.9c13.3-6.7,20.4-13.6,27-22c-2.5-5-4.4-10.3-5.6-16.2
				c-3.9,2.2-9,4.5-14.2,6.8v2.2c0,3.1,0.3,9.6,0.5,13.6v0.9c0,12-13.7,16.1-17.6,16.1c-1.7,0-3-0.8-3.6-2.2
				c-0.6-2.2-2.7-6.5-12-10.2c-1.4-0.5-1.9-1.2-1.9-1.7c0-0.8,0.6-1.2,2-1.2h0.6c2.8,0.3,5.9,0.6,8.6,0.6c6.5,0,8.1-3.3,8.1-6.7
				v-6.1c-3.1,1.1-6.4,2.2-9.5,3v0.6c0,2.3-0.8,4.2-2.5,4.2c-3.3,0-8.4-14-9.3-19.9c1.9,0.3,3.1,0.5,5.8,0.5h3.1
				c4,0,8.1-0.3,12.4-0.6l-0.2-11.5c-5.8,0-10.6,0.3-17.6,1.1c-1.7-1.6-3-4.8-3.1-7.7c6.5,0.9,13.6,1.4,20.7,1.6v-9.2
				c-5.6,0.6-11.1,1.1-16.7,1.4h-0.5c-1.9,0-2.7-0.8-2.7-1.4c0-0.9,0.9-1.6,2.2-1.9c10.2-3,24.6-9.5,31-16.4
				c4.4,2.7,11.1,9.2,12.6,12.4v-1.4c-0.2-3-0.6-5.8-1.2-8.9c15.9,0.9,21.8,2.7,21.8,5.5c0,1.6-1.7,2.7-4,3.4c0,3-0.2,5.9-0.2,8.7
				c0,2.7,0.2,5.2,0.2,7.7h9c2.8-4.4,5.5-7.3,7.2-8.9c-0.8,0.5-1.7,0.6-2.5,0.6c-2.2,0-4.2-1.2-5.5-3.9c-2.5-6.4-3.9-9.3-7.5-12
				c-0.6-0.6-0.9-1.2-0.9-1.4c0-0.8,0.8-1.2,1.6-1.2c0,0,19.3,1.9,19.3,11.2c0,2.2-1.1,4-2.5,5.3h0.2c1.9,0,13.6,9.3,13.6,12.4
				c0,1.4-0.9,2.8-3.1,2.8H1959c0.5,6.1,1.4,11.4,3,15.9c3.6-6.4,4.4-9,5.8-14.9c15.8,5.8,18.2,9,18.2,11.1c0,1.7-2,2.7-4.4,2.7
				c-0.5,0-0.9,0-1.4-0.2c-3.4,5-7,9.3-10.9,13.4c3.4,3.4,6.2,6.1,8.7,6.1c1.1,0,3.1-0.5,10.5-18.2c0.6-1.7,1.6-2.3,2-2.3
				c0.9,0,1.2,1.1,1.2,1.9c0,0.2,0,0.5-0.2,1.1C1988.9,318.7,1988.9,320.5,1988.9,321.2L1988.9,321.2z M1923.2,256
				c-7.7,0-15.4,0.2-23.8,1.1c-1.7-1.6-2.7-4.7-2.8-7.5c8.3,1.2,20.4,1.6,30.5,1.6h3.4v-12.4h-3c-7.7,0-13.4,0.2-21.8,1.1
				c-1.7-1.6-2.8-4.7-3-7.5c8.7,1.2,16.5,1.6,26.6,1.6h1.1v-12.1h-7c-5.5,0-14.5,0.2-22.9,1.1c-1.7-1.6-2.8-4.5-3-7.3
				c6.7,1.1,14.6,1.4,22.4,1.4c-0.6-0.9-1.1-1.9-1.4-3.1c-0.5-1.7-0.8-4-1.7-6.4c-0.9-2.5-2.5-5.2-5-8c-0.8-0.9-1.1-1.6-1.1-1.7
				c0-0.6,0.5-0.9,1.6-0.9c10.5,0,23.6,4.5,23.6,13.6c0,2.5-1.1,4.8-2.8,6.5h9.5c2.8-10.2,2.8-13.6,2.8-21.3
				c1.6,0.3,7.5,1.2,13.1,2.5c5.8,1.4,11.4,3.6,11.4,5.8c0,2-2.2,3.1-5.3,3.1h-0.6c-3.9,3.4-9,7-13.7,9.9h11.5
				c4-5.8,8-10.9,9.9-10.9c3,0,15.2,9.6,15.2,13.1c0,1.2-0.9,2.7-3,2.7h-35.3v12.1h7.3c2.7-3.7,8.1-10.9,9.6-10.9
				c2,0,14.8,9.8,14.8,13.3c0,1.2-0.9,2.5-3,2.5h-28.8v12.4h14.2c1.7-2.7,5.9-8.6,8.9-11.4c0.6-0.5,1.1-0.5,1.6-0.5
				c2.2,0,16.1,9.9,16.1,13.7c0,1.4-0.8,3-3.3,3L1923.2,256L1923.2,256z M1943.3,283.7c-0.3-2.7-0.5-5.3-0.6-8.1c0-1.1-0.3-3-0.5-5
				c-0.3,1.1-1.2,1.7-2.8,1.7c-1.1,0-2.3-0.3-3.7-0.9c-1.4,0.3-2.8,0.6-4.2,0.8v11.5H1943.3L1943.3,283.7z M1931.5,288.7v10.2
				c4.5-0.5,8.9-1.2,13.6-1.7c-0.5-2.8-0.9-5.5-1.2-8.4h-12.4V288.7z"/>
		</g>
	</g>
	<g>
		<path d="M44.1,476.3H19.4l-3,6.5c-1,2.2-1.4,3.9-1.4,5.4c0,1.9,0.8,3.3,2.3,4.2c0.9,0.5,3.2,0.9,6.9,1.2v1.8H1v-1.8
			c2.5-0.4,4.5-1.4,6.2-3c1.6-1.6,3.6-5,6-10.1l25-53.2h1L64.4,482c2.4,5.2,4.4,8.4,5.9,9.8c1.1,1,2.8,1.6,4.9,1.7v1.8H41.5v-1.8
			h1.4c2.7,0,4.6-0.4,5.8-1.1c0.8-0.5,1.1-1.3,1.1-2.3c0-0.6-0.1-1.2-0.3-1.8c-0.1-0.3-0.6-1.5-1.5-3.7L44.1,476.3L44.1,476.3z
			 M42.3,472.7l-10.5-23l-10.8,23H42.3L42.3,472.7z"/>
		<path d="M99.5,428.7v57.1c0,3.3,0.4,5.3,1.2,6.2c0.8,0.9,2.3,1.4,4.6,1.5v1.7h-26v-1.7c2.1-0.1,3.7-0.7,4.8-1.7
			c0.7-0.8,1.1-2.7,1.1-6v-47.6c0-3.2-0.4-5.3-1.2-6.1c-0.8-0.9-2.3-1.4-4.6-1.5v-1.8C79.3,428.7,99.5,428.7,99.5,428.7z"/>
		<path d="M129.5,428.7v57.1c0,3.3,0.4,5.3,1.2,6.2c0.8,0.9,2.3,1.4,4.6,1.5v1.7h-26.1v-1.7c2.1-0.1,3.7-0.7,4.8-1.7
			c0.7-0.8,1.1-2.7,1.1-6v-47.6c0-3.2-0.4-5.3-1.2-6.1c-0.8-0.9-2.3-1.4-4.6-1.5v-1.8L129.5,428.7L129.5,428.7z"/>
		<path d="M233.3,427.1v23.1h-2c-1.5-6.1-4.3-10.7-8.5-13.9c-4.2-3.2-8.8-4.8-14-4.8c-4.4,0-8.3,1.2-12,3.6c-3.6,2.4-6.3,5.5-8,9.4
			c-2.2,4.9-3.3,10.5-3.3,16.5s0.8,11.4,2.3,16.3c1.6,4.9,4.1,8.6,7.4,11.1c3.3,2.5,7.7,3.8,13.1,3.8c4.4,0,8.4-0.9,12.1-2.7
			c3.6-1.8,7.5-5,11.6-9.5v5.8c-3.9,3.9-8,6.7-12.3,8.5c-4.2,1.7-9.2,2.7-14.8,2.7c-7.4,0-14.1-1.4-19.8-4.2
			c-5.8-2.9-10.2-7-13.4-12.3s-4.7-11.1-4.7-17c0-6.4,1.7-12.4,5.2-18.1s8.2-10.2,14.2-13.3c5.9-3.2,12.2-4.7,18.9-4.7
			c4.9,0,10.1,1,15.6,3c3.2,1.2,5.2,1.7,6.1,1.7c1.1,0,2-0.4,2.9-1.1c0.8-0.8,1.4-2,1.6-3.6L233.3,427.1L233.3,427.1z"/>
		<path d="M261.7,448c4.2,0,8.1,1.1,11.7,3.1s6.4,5,8.3,8.8s2.8,8,2.8,12.5c0,6.5-1.7,12-5.2,16.4c-4.2,5.3-10,8-17.3,8
			c-7.3,0-12.8-2.4-16.7-7.3c-3.9-4.8-5.9-10.5-5.9-16.9s2-12.3,6-17.3C249.2,450.4,254.7,448,261.7,448L261.7,448z M261.8,451.5
			c-1.7,0-3.3,0.6-4.5,1.9s-2,3.8-2.5,7.5c-0.4,3.7-0.6,8.9-0.6,15.5c0,3.5,0.2,6.8,0.8,9.8c0.4,2.3,1.2,4.1,2.4,5.3
			c1.2,1.2,2.7,1.8,4.2,1.8c1.6,0,2.8-0.4,3.9-1.2c1.4-1.1,2.2-2.7,2.7-4.7c0.7-3.1,1.1-9.4,1.1-18.9c0-5.6-0.3-9.4-1-11.5
			c-0.7-2-1.6-3.6-2.9-4.5C264.5,451.8,263.3,451.5,261.8,451.5L261.8,451.5z"/>
		<path d="M307.7,428.7v57.1c0,3.3,0.4,5.3,1.2,6.2c0.8,0.9,2.3,1.4,4.6,1.5v1.7h-26v-1.7c2.1-0.1,3.7-0.7,4.8-1.7
			c0.7-0.8,1.1-2.7,1.1-6v-47.6c0-3.2-0.4-5.3-1.2-6.1c-0.8-0.9-2.3-1.4-4.6-1.5v-1.8L307.7,428.7L307.7,428.7z"/>
		<path d="M337.7,428.7v57.1c0,3.3,0.4,5.3,1.2,6.2c0.8,0.9,2.3,1.4,4.6,1.5v1.7h-26.1v-1.7c2.1-0.1,3.7-0.7,4.8-1.7
			c0.7-0.8,1.1-2.7,1.1-6v-47.6c0-3.2-0.4-5.3-1.2-6.1c-0.8-0.9-2.3-1.4-4.6-1.5v-1.8L337.7,428.7L337.7,428.7z"/>
		<path d="M386.7,470.6h-26.4c0.3,6.1,2,10.9,5.1,14.5c2.3,2.7,5.2,4.1,8.6,4.1c2,0,3.9-0.5,5.6-1.7s3.5-3.1,5.5-5.9l1.7,1.1
			c-2.6,5.1-5.5,8.7-8.6,10.8c-3.2,2.1-6.8,3.2-11,3.2c-7.1,0-12.6-2.7-16.2-7.9c-3-4.2-4.4-9.5-4.4-15.8c0-7.7,2.2-13.8,6.5-18.3
			s9.5-6.8,15.3-6.8c4.8,0,9.1,1.9,12.7,5.8C384.5,457.5,386.4,463.1,386.7,470.6L386.7,470.6z M374,467.4c0-5.3-0.3-8.9-0.9-10.8
			c-0.6-2-1.5-3.5-2.8-4.5c-0.8-0.6-1.7-0.9-2.9-0.9c-1.8,0-3.3,0.8-4.4,2.5c-2,3-3,6.9-3,12v1.7L374,467.4L374,467.4z"/>
		<path d="M422.4,449.9h16.2v5.4h-9.2c1.7,1.6,2.9,3.1,3.5,4.4c0.8,1.7,1.2,3.6,1.2,5.5c0,3.3-1,6.1-2.9,8.6
			c-1.9,2.4-4.5,4.3-7.8,5.7c-3.3,1.4-6.2,2-8.7,2c-0.2,0-2.3-0.1-6.2-0.2c-1.5,0-2.9,0.5-3.9,1.4c-1.1,1-1.6,2.1-1.6,3.5
			c0,1.2,0.5,2.1,1.4,2.9s2.5,1.1,4.6,1.1l8.9-0.1c7.2,0,12.2,0.8,14.9,2.3c3.9,2.1,5.8,5.3,5.8,9.7c0,2.8-0.9,5.3-2.7,7.6
			c-1.8,2.3-4.2,3.9-7,5.1c-4.5,1.6-9.5,2.4-15.3,2.4c-4.3,0-8.3-0.4-11.9-1.2s-6.1-1.9-7.7-3.3c-1.5-1.4-2.3-3-2.3-4.5
			c0-1.6,0.6-2.9,1.7-4.1c1.2-1.2,3.4-2.2,6.7-3c-4.5-2.1-6.7-5-6.7-8.7c0-2.3,0.9-4.5,2.7-6.6c1.8-2.1,4.7-4,8.6-5.5
			c-4.6-1.6-8-3.7-10-6.4s-3.1-5.7-3.1-9.1c0-4.5,1.9-8.4,5.8-11.7c3.9-3.3,8.8-4.9,14.8-4.9C415.7,448,419,448.6,422.4,449.9
			L422.4,449.9z M410.4,502.1c-3.5,0-5.8,0.3-7,0.8c-2,1-3,2.4-3,4.2s1,3.2,3,4.5c2,1.4,5.8,2,11.4,2c4.8,0,8.6-0.6,11.3-1.8
			c2.7-1.2,4.1-3,4.1-5.1c0-0.8-0.2-1.5-0.8-2c-0.9-1-2.3-1.7-4.2-2C423.5,502.3,418.5,502.1,410.4,502.1L410.4,502.1z M413.5,451
			c-2,0-3.7,1-5.1,2.9s-2,5.9-2,11.9c0,4.8,0.7,8.3,2,10.1c1.4,1.8,3,2.7,4.8,2.7c2,0,3.8-0.9,5.2-2.7c1.4-1.8,2-5.3,2-10.5
			c0-5.8-0.8-9.8-2.3-12C417,451.8,415.5,451,413.5,451L413.5,451z"/>
		<path d="M481.6,470.6h-26.4c0.3,6.1,2,10.9,5.1,14.5c2.3,2.7,5.2,4.1,8.6,4.1c2,0,3.9-0.5,5.6-1.7s3.5-3.1,5.5-5.9l1.7,1.1
			c-2.6,5.1-5.5,8.7-8.6,10.8c-3.2,2.1-6.8,3.2-11,3.2c-7.1,0-12.6-2.7-16.2-7.9c-3-4.2-4.5-9.5-4.5-15.8c0-7.7,2.2-13.8,6.5-18.3
			s9.5-6.8,15.3-6.8c4.8,0,9.1,1.9,12.7,5.8C479.4,457.5,481.3,463.1,481.6,470.6L481.6,470.6z M468.9,467.4c0-5.3-0.3-8.9-0.9-10.8
			c-0.6-2-1.5-3.5-2.8-4.5c-0.8-0.6-1.7-0.9-2.9-0.9c-1.8,0-3.3,0.8-4.4,2.5c-2,3-3,6.9-3,12v1.7L468.9,467.4L468.9,467.4z"/>
		<path d="M517.2,448.1l0.8,15.7h-1.7c-2.1-4.6-4.2-7.8-6.5-9.5s-4.5-2.6-6.7-2.6c-1.4,0-2.6,0.5-3.6,1.4s-1.5,2-1.5,3.1
			c0,0.9,0.3,1.7,1.1,2.6c1.1,1.4,4.2,3.6,9.2,6.9c5.1,3.3,8.4,6.1,10,8.3c1.6,2.3,2.4,4.8,2.4,7.7c0,2.6-0.7,5.1-2,7.5
			c-1.4,2.4-3.3,4.3-5.7,5.7c-2.4,1.3-5.2,2-8.1,2c-2.3,0-5.4-0.7-9.2-2c-1.1-0.4-1.7-0.5-2.1-0.5c-1.1,0-2,0.8-2.8,2.4h-1.7
			L488,480h1.7c1.5,4.3,3.6,7.6,6.4,9.8c2.7,2.2,5.2,3.3,7.7,3.3c1.7,0,3-0.5,4-1.4c1.1-1,1.6-2.1,1.6-3.5c0-1.6-0.5-3-1.5-4.1
			c-1.1-1.1-3.3-2.9-6.9-5.2c-5.2-3.5-8.6-6.1-10.2-8c-2.3-2.7-3.4-5.7-3.4-8.9c0-3.6,1.3-6.7,3.9-9.6s6.3-4.3,11.1-4.3
			c2.6,0,5.2,0.6,7.6,1.8c0.9,0.5,1.7,0.8,2.3,0.8c0.6,0,1.1-0.2,1.5-0.4c0.4-0.2,1-0.9,1.8-2.1L517.2,448.1L517.2,448.1z"/>
		<path d="M600.3,427.1l0.6,22.2h-2.1c-1-5.6-3.5-10.1-7.3-13.5c-3.9-3.4-8.1-5.1-12.7-5.1c-3.5,0-6.3,0.9-8.3,2.7
			c-2,1.8-3.1,3.9-3.1,6.1c0,1.5,0.4,2.8,1.1,3.9c1,1.5,2.6,3.1,4.8,4.5c1.6,1.1,5.4,3,11.2,5.8c8.2,3.9,13.7,7.4,16.5,10.8
			s4.2,7.3,4.2,11.7c0,5.6-2.3,10.4-6.8,14.4s-10.3,6-17.3,6c-2.2,0-4.2-0.2-6.2-0.6c-2-0.5-4.4-1.2-7.3-2.4c-1.7-0.7-3-1-4.1-1
			c-0.9,0-1.8,0.3-2.8,1s-1.8,1.7-2.4,3h-1.9v-25.1h1.9c1.5,7,4.4,12.5,8.7,16.2s8.9,5.6,13.9,5.6c3.9,0,6.9-1,9.2-3s3.4-4.3,3.4-7
			c0-1.6-0.5-3.1-1.3-4.5c-0.9-1.4-2.2-2.9-4-4.2c-1.8-1.4-4.9-3-9.5-5.2c-6.4-3-10.9-5.5-13.7-7.7c-2.8-2.1-4.9-4.5-6.4-7
			c-1.5-2.6-2.3-5.5-2.3-8.6c0-5.3,2-9.8,6.1-13.6c4.1-3.7,9.2-5.6,15.5-5.6c2.3,0,4.5,0.2,6.6,0.8c1.6,0.4,3.6,1.1,5.9,2.2
			c2.3,1.1,3.9,1.6,4.8,1.6s1.6-0.2,2.1-0.8c0.5-0.5,1-1.8,1.4-3.8L600.3,427.1L600.3,427.1z"/>
		<path d="M629.5,432.5v16.8h11.4v4.8h-11.4v28.3c0,2.7,0.2,4.4,0.4,5.2s0.7,1.4,1.4,1.9s1.2,0.7,1.8,0.7c2.2,0,4.3-1.6,6.4-4.8
			l1.5,1.1c-2.8,6.3-7.3,9.5-13.6,9.5c-3,0-5.7-0.8-7.7-2.4c-2.1-1.6-3.5-3.4-4-5.5c-0.3-1.1-0.5-4.2-0.5-9v-24.8h-6.3v-1.7
			c4.3-3,8-6,11.1-9.2c3-3.2,5.7-6.8,8-10.8L629.5,432.5L629.5,432.5z"/>
		<path d="M692.2,449.3v36c0,3.5,0.3,5.7,1.1,6.6c0.7,0.8,2,1.4,4.2,1.7v1.7h-19.6v-6.1c-2.3,2.7-4.6,4.5-6.9,5.8
			c-2.3,1.2-4.8,1.8-7.7,1.8s-5.2-0.8-7.3-2.3c-2.1-1.6-3.6-3.5-4.2-5.6c-0.8-2.1-1.1-5.8-1.1-11.1v-18.3c0-3.5-0.3-5.6-1-6.5
			c-0.7-0.8-2-1.4-4.2-1.7v-1.8H665v31.4c0,3.3,0.2,5.4,0.5,6.4s0.8,1.7,1.5,2.2s1.5,0.8,2.4,0.8c1.2,0,2.3-0.3,3.3-0.9
			c1.4-0.8,3-2.6,4.9-5.2v-24.6c0-3.5-0.3-5.6-1-6.5c-0.7-0.8-2-1.4-4.2-1.7v-1.8L692.2,449.3L692.2,449.3z"/>
		<path d="M748.2,428.7v52.9c0,3.6,0.1,5.7,0.3,6.4c0.3,1.1,0.8,1.9,1.6,2.4s2.1,0.8,4,1v1.6l-20.4,3.8v-7.3
			c-2.4,2.8-4.6,4.8-6.5,5.8s-4.1,1.5-6.4,1.5c-6.1,0-11-2.7-14.6-7.9c-2.9-4.2-4.3-9.5-4.3-15.7c0-4.9,0.9-9.4,2.7-13.3
			s4.2-6.9,7.3-8.9s6.4-3,10-3c2.3,0,4.3,0.5,6.1,1.3s3.7,2.3,5.8,4.5v-13.9c0-3.5-0.2-5.6-0.5-6.4c-0.4-1-1.1-1.7-1.9-2.1
			c-0.8-0.5-2.3-0.7-4.6-0.7v-2L748.2,428.7L748.2,428.7z M733.7,459.8c-2.6-4.7-5.7-7-9.3-7c-1.3,0-2.3,0.3-3.2,1
			c-1.3,1-2.3,2.8-3.1,5.4s-1.2,6.4-1.2,11.7c0,5.8,0.5,10.1,1.4,12.9s2.1,4.8,3.6,6.1c0.8,0.6,1.9,0.9,3.3,0.9c3,0,5.9-2.3,8.6-6.8
			L733.7,459.8L733.7,459.8z"/>
		<path d="M797.8,470.6h-26.4c0.3,6.1,2,10.9,5.1,14.5c2.3,2.7,5.2,4.1,8.6,4.1c2,0,3.9-0.5,5.6-1.7s3.5-3.1,5.5-5.9l1.7,1.1
			c-2.6,5.1-5.5,8.7-8.6,10.8c-3.2,2.1-6.8,3.2-11,3.2c-7.1,0-12.6-2.7-16.2-7.9c-3-4.2-4.5-9.5-4.5-15.8c0-7.7,2.2-13.8,6.5-18.3
			s9.5-6.8,15.3-6.8c4.8,0,9.1,1.9,12.7,5.8C795.6,457.5,797.5,463.1,797.8,470.6L797.8,470.6z M785.1,467.4c0-5.3-0.3-8.9-0.9-10.8
			c-0.6-2-1.5-3.5-2.8-4.5c-0.8-0.6-1.7-0.9-2.9-0.9c-1.8,0-3.3,0.8-4.4,2.5c-2,3-3,6.9-3,12v1.7L785.1,467.4L785.1,467.4z"/>
		<path d="M821.2,449.3v6c2.5-2.6,4.8-4.4,7.1-5.6s4.7-1.7,7.3-1.7c3.1,0,5.8,0.8,7.8,2.5s3.4,3.7,4.2,6.1c0.5,1.9,0.8,5.5,0.8,10.8
			v17.9c0,3.6,0.3,5.8,1,6.6c0.7,0.8,2,1.4,4.2,1.7v1.7h-24.4v-1.7c1.8-0.2,3.1-1,3.9-2.2c0.5-0.8,0.8-2.9,0.8-6.1v-20.5
			c0-3.8-0.2-6.1-0.5-7.1s-0.8-1.7-1.6-2.3c-0.8-0.5-1.6-0.8-2.4-0.8c-3,0-5.7,2-8.3,6.1v24.6c0,3.4,0.3,5.6,1,6.5s1.9,1.5,3.7,1.7
			v1.7h-24.4v-1.7c2-0.2,3.5-0.8,4.3-1.9c0.6-0.8,0.9-2.9,0.9-6.4v-26c0-3.5-0.3-5.6-1-6.5c-0.7-0.8-2-1.4-4.2-1.7v-1.8L821.2,449.3
			L821.2,449.3z"/>
		<path d="M875.7,432.5v16.8h11.4v4.8h-11.4v28.3c0,2.7,0.2,4.4,0.4,5.2c0.2,0.8,0.7,1.4,1.4,1.9s1.2,0.7,1.8,0.7
			c2.2,0,4.3-1.6,6.4-4.8l1.5,1.1c-2.8,6.3-7.3,9.5-13.6,9.5c-3,0-5.7-0.8-7.7-2.4c-2.1-1.6-3.5-3.4-4-5.5c-0.3-1.1-0.5-4.2-0.5-9
			v-24.8H855v-1.7c4.3-3,8-6,11.1-9.2c3-3.2,5.7-6.8,8-10.8L875.7,432.5L875.7,432.5z"/>
		<path d="M921.3,448.1l0.8,15.7h-1.7c-2.1-4.6-4.2-7.8-6.5-9.5s-4.5-2.6-6.7-2.6c-1.4,0-2.6,0.5-3.6,1.4c-1.1,0.9-1.5,2-1.5,3.1
			c0,0.9,0.3,1.7,1.1,2.6c1.1,1.4,4.2,3.6,9.2,6.9s8.4,6.1,10,8.3c1.6,2.3,2.4,4.8,2.4,7.7c0,2.6-0.7,5.1-2,7.5
			c-1.4,2.4-3.3,4.3-5.7,5.7c-2.4,1.3-5.2,2-8.1,2c-2.3,0-5.4-0.7-9.2-2c-1.1-0.4-1.7-0.5-2.1-0.5c-1.1,0-2,0.8-2.8,2.4H893
			l-0.8-16.5h1.7c1.5,4.3,3.6,7.6,6.4,9.8c2.7,2.2,5.2,3.3,7.7,3.3c1.7,0,3-0.5,4-1.4c1.1-1,1.6-2.1,1.6-3.5c0-1.6-0.5-3-1.5-4.1
			c-1.1-1.1-3.3-2.9-6.9-5.2c-5.2-3.5-8.6-6.1-10.2-8c-2.3-2.7-3.4-5.7-3.4-8.9c0-3.6,1.3-6.7,3.9-9.6c2.6-2.9,6.3-4.3,11.1-4.3
			c2.6,0,5.2,0.6,7.6,1.8c0.9,0.5,1.7,0.8,2.3,0.8s1.1-0.2,1.5-0.4c0.4-0.2,1-0.9,1.8-2.1L921.3,448.1L921.3,448.1z"/>
		<path d="M932.1,459.9v-2.2c4-1.7,6.9-3.8,8.7-6.4s2.7-5.3,2.7-8c0-0.5-0.2-0.9-0.4-1.2c-0.2-0.2-0.5-0.4-0.8-0.4
			c-0.2,0-0.5,0.2-0.9,0.3c-1,0.5-2.3,0.8-3.7,0.8c-2,0-3.8-0.8-5.3-2.3s-2.3-3.3-2.3-5.3c0-2.2,0.8-4.1,2.6-5.7
			c1.7-1.7,3.8-2.4,6.2-2.4c3,0,5.5,1.1,7.6,3.3c2.1,2.2,3.2,5.2,3.2,8.9c0,4.7-1.5,8.9-4.5,12.5C942.4,455.5,938,458.1,932.1,459.9
			L932.1,459.9z"/>
		<path d="M1012,464.9v18.7c0,3.6,0.2,5.9,0.7,6.8s1.3,1.7,2.4,2.3c1.1,0.5,3.3,0.8,6.5,0.8v1.8h-35.8v-1.8c3.3,0,5.5-0.3,6.6-0.8
			c1.1-0.6,2-1.3,2.4-2.3c0.5-0.9,0.7-3.2,0.7-6.8v-43.3c0-3.6-0.2-5.9-0.7-6.8s-1.3-1.7-2.4-2.3c-1.1-0.5-3.3-0.8-6.5-0.8v-1.8
			h32.5c8.5,0,14.6,0.5,18.6,1.7c3.9,1.1,7.1,3.2,9.6,6.1c2.5,3,3.7,6.5,3.7,10.5c0,4.9-1.9,9-5.6,12.2c-2.3,2-5.7,3.6-9.9,4.5
			l16.8,22.6c2.2,3,3.8,4.8,4.7,5.5c1.4,1,3,1.6,4.9,1.7v1.8h-22l-22.6-30.4L1012,464.9L1012,464.9z M1012,432.2v29.2h3
			c4.8,0,8.3-0.5,10.8-1.3c2.3-0.8,4.2-2.3,5.6-4.5s2-5,2-8.6c0-5.1-1.3-8.9-3.7-11.3c-2.5-2.4-6.5-3.6-12-3.6L1012,432.2
			L1012,432.2z"/>
		<path d="M1101.4,470.6H1075c0.3,6.1,2,10.9,5.1,14.5c2.3,2.7,5.2,4.1,8.6,4.1c2,0,3.9-0.5,5.6-1.7c1.7-1.1,3.5-3.1,5.5-5.9
			l1.7,1.1c-2.6,5.1-5.5,8.7-8.6,10.8s-6.8,3.2-11,3.2c-7.1,0-12.6-2.7-16.2-7.9c-3-4.2-4.5-9.5-4.5-15.8c0-7.7,2.2-13.8,6.5-18.3
			s9.5-6.8,15.3-6.8c4.8,0,9.1,1.9,12.7,5.8C1099.2,457.5,1101.1,463.1,1101.4,470.6L1101.4,470.6z M1088.7,467.4
			c0-5.3-0.3-8.9-0.9-10.8c-0.6-2-1.5-3.5-2.8-4.5c-0.8-0.6-1.7-0.9-2.9-0.9c-1.8,0-3.3,0.8-4.4,2.5c-2,3-3,6.9-3,12v1.7
			L1088.7,467.4L1088.7,467.4z"/>
		<path d="M1124,490.6v17.1c0,2.3,0.2,3.9,0.6,4.8c0.4,0.8,1,1.4,1.8,1.9c0.8,0.4,2.4,0.6,4.8,0.6v1.8h-27.5V515
			c2.1-0.1,3.7-0.6,4.8-1.7c0.7-0.8,1.1-2.7,1.1-5.8V459c0-3.3-0.4-5.3-1.2-6.2c-0.8-0.9-2.3-1.4-4.6-1.5v-1.8h20.2v6.1
			c1.7-2.3,3.4-4.1,5.2-5.1c2.5-1.5,5.2-2.3,8.2-2.3c3.6,0,6.7,1.1,9.7,3.2c2.9,2.1,5.1,5.1,6.7,8.9c1.5,3.7,2.3,7.8,2.3,12.1
			c0,4.7-0.8,8.9-2.3,12.7c-1.6,3.9-3.9,6.8-6.8,8.8c-3,2-6.3,3-9.9,3c-2.7,0-5.2-0.5-7.4-1.7C1127.7,494.2,1125.9,492.7,1124,490.6
			L1124,490.6z M1124,485.6c3,4,6.1,6,9.5,6c1.9,0,3.4-0.9,4.6-2.8c1.8-2.7,2.7-8,2.7-15.8s-1-13.3-3-16.3c-1.3-1.9-3-2.9-5.2-2.9
			c-3.5,0-6.4,2.4-8.6,7.2V485.6L1124,485.6z"/>
		<path d="M1180.5,449.3v10.5c3.2-4.8,6-7.9,8.4-9.5s4.7-2.3,7-2.3c1.9,0,3.5,0.6,4.6,1.7s1.7,2.7,1.7,4.8c0,2.2-0.5,3.9-1.7,5.1
			c-1.1,1.2-2.5,1.8-4,1.8c-1.8,0-3.4-0.5-4.8-1.7c-1.4-1.1-2.1-1.7-2.3-1.9c-0.3-0.2-0.8-0.3-1.2-0.3c-1,0-2,0.4-2.8,1.1
			c-1.4,1.1-2.5,2.7-3.2,4.8c-1.1,3.2-1.7,6.7-1.7,10.5v10.6l0.1,2.7c0,1.9,0.2,3.1,0.4,3.6c0.4,0.9,1,1.5,1.8,2
			c0.8,0.4,2.2,0.7,4.1,0.8v1.7h-26.1v-1.7c2.1-0.2,3.5-0.7,4.2-1.7c0.8-0.9,1.1-3.4,1.1-7.4V459c0-2.7-0.2-4.3-0.4-5
			c-0.3-0.9-0.8-1.6-1.5-2c-0.7-0.5-1.8-0.8-3.5-0.9v-1.8L1180.5,449.3L1180.5,449.3z"/>
		<path d="M1245.7,470.6h-26.4c0.3,6.1,2,10.9,5.1,14.5c2.3,2.7,5.2,4.1,8.6,4.1c2,0,3.9-0.5,5.6-1.7c1.7-1.1,3.5-3.1,5.5-5.9
			l1.7,1.1c-2.6,5.1-5.5,8.7-8.6,10.8c-3.1,2-6.8,3.2-11,3.2c-7.1,0-12.6-2.7-16.2-7.9c-3-4.2-4.5-9.5-4.5-15.8
			c0-7.7,2.2-13.8,6.5-18.3s9.5-6.8,15.3-6.8c4.8,0,9.1,1.9,12.7,5.8C1243.5,457.5,1245.4,463.1,1245.7,470.6L1245.7,470.6z
			 M1233,467.4c0-5.3-0.3-8.9-0.9-10.8c-0.6-2-1.5-3.5-2.8-4.5c-0.8-0.6-1.7-0.9-2.9-0.9c-1.8,0-3.3,0.8-4.4,2.5c-2,3-3,6.9-3,12
			v1.7L1233,467.4L1233,467.4z"/>
		<path d="M1281.3,448.1l0.8,15.7h-1.7c-2.1-4.6-4.2-7.8-6.5-9.5s-4.5-2.6-6.7-2.6c-1.4,0-2.6,0.5-3.6,1.4s-1.5,2-1.5,3.1
			c0,0.9,0.3,1.7,1.1,2.6c1.1,1.4,4.2,3.6,9.2,6.9s8.4,6.1,10,8.3c1.6,2.3,2.4,4.8,2.4,7.7c0,2.6-0.7,5.1-2,7.5
			c-1.4,2.4-3.3,4.3-5.7,5.7c-2.4,1.3-5.2,2-8.1,2c-2.3,0-5.4-0.7-9.2-2c-1.1-0.4-1.7-0.5-2.1-0.5c-1.1,0-2,0.8-2.8,2.4h-1.7
			l-0.8-16.5h1.7c1.5,4.3,3.6,7.6,6.4,9.8c2.7,2.2,5.2,3.3,7.7,3.3c1.7,0,3-0.5,4-1.4c1.1-1,1.6-2.1,1.6-3.5c0-1.6-0.5-3-1.5-4.1
			c-1.1-1.1-3.3-2.9-6.9-5.2c-5.2-3.5-8.6-6.1-10.2-8c-2.3-2.7-3.4-5.7-3.4-8.9c0-3.6,1.3-6.7,3.9-9.6s6.3-4.3,11.1-4.3
			c2.6,0,5.2,0.6,7.6,1.8c0.9,0.5,1.7,0.8,2.3,0.8c0.6,0,1.1-0.2,1.5-0.4c0.4-0.2,1-0.9,1.8-2.1L1281.3,448.1L1281.3,448.1z"/>
		<path d="M1330.6,470.6h-26.4c0.3,6.1,2,10.9,5.1,14.5c2.3,2.7,5.2,4.1,8.6,4.1c2,0,3.9-0.5,5.6-1.7s3.5-3.1,5.5-5.9l1.7,1.1
			c-2.6,5.1-5.5,8.7-8.6,10.8c-3.2,2.1-6.8,3.2-11,3.2c-7.1,0-12.6-2.7-16.2-7.9c-3-4.2-4.5-9.5-4.5-15.8c0-7.7,2.2-13.8,6.5-18.3
			s9.5-6.8,15.3-6.8c4.8,0,9.1,1.9,12.7,5.8C1328.4,457.5,1330.3,463.1,1330.6,470.6L1330.6,470.6z M1317.9,467.4
			c0-5.3-0.3-8.9-0.9-10.8s-1.5-3.5-2.8-4.5c-0.8-0.6-1.7-0.9-2.9-0.9c-1.8,0-3.3,0.8-4.4,2.5c-2,3-3,6.9-3,12v1.7L1317.9,467.4
			L1317.9,467.4z"/>
		<path d="M1354.1,449.3v6c2.5-2.6,4.8-4.4,7.1-5.6c2.3-1.2,4.7-1.7,7.3-1.7c3.1,0,5.8,0.8,7.8,2.5s3.4,3.7,4.1,6.1
			c0.5,1.9,0.8,5.5,0.8,10.8v17.9c0,3.6,0.3,5.8,1,6.6c0.7,0.8,2,1.4,4.2,1.7v1.7H1362v-1.7c1.8-0.2,3.1-1,3.9-2.2
			c0.5-0.8,0.8-2.9,0.8-6.1v-20.5c0-3.8-0.2-6.1-0.5-7.1s-0.8-1.7-1.6-2.3c-0.8-0.5-1.6-0.8-2.4-0.8c-3,0-5.7,2-8.3,6.1v24.6
			c0,3.4,0.3,5.6,1,6.5s1.9,1.5,3.7,1.7v1.7h-24.4v-1.7c2-0.2,3.5-0.8,4.3-1.9c0.6-0.8,0.9-2.9,0.9-6.4v-26c0-3.5-0.3-5.6-1-6.5
			c-0.7-0.8-2-1.4-4.2-1.7v-1.8L1354.1,449.3L1354.1,449.3z"/>
		<path d="M1408.4,432.5v16.8h11.4v4.8h-11.4v28.3c0,2.7,0.2,4.4,0.4,5.2s0.7,1.4,1.4,1.9c0.7,0.5,1.3,0.7,1.8,0.7
			c2.3,0,4.3-1.6,6.4-4.8l1.5,1.1c-2.8,6.3-7.3,9.5-13.6,9.5c-3,0-5.7-0.8-7.7-2.4c-2.1-1.6-3.5-3.4-4-5.5c-0.3-1.1-0.5-4.2-0.5-9
			v-24.8h-6.3v-1.7c4.3-3,8-6,11.1-9.2s5.7-6.8,8-10.8L1408.4,432.5L1408.4,432.5z"/>
		<path d="M1450.4,488.5c-5.9,4.9-11.1,7.4-15.8,7.4c-2.7,0-5.1-0.8-6.9-2.6c-1.8-1.7-2.7-3.9-2.7-6.4c0-3.5,1.6-6.7,4.8-9.5
			c3.2-2.8,10.1-6.5,20.7-11.2v-4.6c0-3.5-0.2-5.7-0.6-6.6s-1.1-1.7-2.3-2.3c-1.1-0.7-2.3-1-3.7-1c-2.3,0-4.1,0.5-5.5,1.4
			c-0.9,0.6-1.4,1.3-1.4,2s0.5,1.5,1.4,2.6c1.3,1.4,2,2.8,2,4.1c0,1.6-0.6,3-1.9,4.1s-2.9,1.7-4.9,1.7c-2.2,0-4-0.6-5.5-1.9
			c-1.4-1.2-2.2-2.7-2.2-4.4c0-2.3,1-4.6,3-6.7s4.7-3.8,8.2-4.9s7.1-1.7,10.9-1.7c4.5,0,8.2,0.9,10.8,2.8c2.7,1.8,4.4,3.9,5.2,6
			c0.5,1.4,0.8,4.5,0.8,9.5V484c0,2.1,0.1,3.4,0.2,3.9s0.5,0.9,0.8,1.2c0.3,0.3,0.8,0.4,1.2,0.4c0.9,0,1.8-0.6,2.7-1.8l1.5,1.2
			c-1.7,2.4-3.5,4.2-5.3,5.3c-1.8,1.1-3.9,1.7-6.3,1.7c-2.7,0-4.9-0.6-6.4-1.8C1451.7,492.9,1450.8,491,1450.4,488.5L1450.4,488.5z
			 M1450.4,484.9v-15.4c-4.2,2.3-7.3,4.8-9.2,7.5c-1.4,1.7-2,3.6-2,5.4c0,1.5,0.6,2.8,1.7,4c0.8,0.9,2,1.4,3.6,1.4
			C1446.2,487.7,1448.1,486.8,1450.4,484.9L1450.4,484.9z"/>
		<path d="M1492.5,432.5v16.8h11.4v4.8h-11.4v28.3c0,2.7,0.2,4.4,0.4,5.2s0.7,1.4,1.4,1.9c0.7,0.5,1.3,0.7,1.8,0.7
			c2.3,0,4.3-1.6,6.4-4.8l1.5,1.1c-2.8,6.3-7.3,9.5-13.6,9.5c-3,0-5.7-0.8-7.7-2.4c-2.1-1.6-3.5-3.4-4-5.5c-0.3-1.1-0.5-4.2-0.5-9
			v-24.8h-6.3v-1.7c4.3-3,8-6,11.1-9.2c3-3.2,5.7-6.8,8-10.8L1492.5,432.5L1492.5,432.5z"/>
		<path d="M1528.1,449.3v36.4c0,3.3,0.4,5.3,1.2,6.2c0.8,0.9,2.3,1.4,4.6,1.5v1.7h-26.1v-1.7c2.1-0.1,3.7-0.7,4.8-1.7
			c0.7-0.8,1.1-2.7,1.1-6v-26.9c0-3.3-0.4-5.3-1.2-6.2c-0.8-0.9-2.3-1.4-4.6-1.5v-1.8H1528.1L1528.1,449.3z M1520.9,427.1
			c2.2,0,4.2,0.8,5.7,2.3s2.3,3.3,2.3,5.4s-0.8,3.9-2.3,5.4c-1.6,1.4-3.5,2.2-5.7,2.2s-4.1-0.8-5.6-2.2c-1.5-1.5-2.3-3.3-2.3-5.4
			s0.8-3.9,2.3-5.4C1516.8,427.8,1518.7,427.1,1520.9,427.1L1520.9,427.1z"/>
		<path d="M1558.4,496.7l-16.2-35.7c-2-4.3-3.5-7-4.6-8.2c-0.8-0.8-2-1.4-3.5-1.7v-1.8h25.6v1.8c-1.6,0-2.7,0.3-3.3,0.8
			c-0.8,0.8-1.2,1.6-1.2,2.6c0,1.2,0.8,3.5,2.3,6.8l8,17.3l6.4-14.9c1.8-4.2,2.7-7.3,2.7-9c0-1-0.4-1.8-1.1-2.5
			c-0.8-0.6-2.1-1-4.1-1.1v-1.8h15.8v1.8c-1.5,0.2-2.7,0.8-3.7,1.6c-1,0.8-2.4,3.5-4.3,7.8l-16.1,36.1h-2.5v0.1L1558.4,496.7
			L1558.4,496.7z"/>
		<path d="M1625.5,470.6H1599c0.3,6.1,2,10.9,5.1,14.5c2.3,2.7,5.2,4.1,8.6,4.1c2,0,3.9-0.5,5.6-1.7s3.5-3.1,5.5-5.9l1.7,1.1
			c-2.6,5.1-5.5,8.7-8.6,10.8c-3.1,2-6.8,3.2-11,3.2c-7.1,0-12.6-2.7-16.2-7.9c-3-4.2-4.5-9.5-4.5-15.8c0-7.7,2.2-13.8,6.5-18.3
			s9.5-6.8,15.3-6.8c4.8,0,9.1,1.9,12.7,5.8C1623.2,457.5,1625.2,463.1,1625.5,470.6L1625.5,470.6z M1612.7,467.4
			c0-5.3-0.3-8.9-0.9-10.8c-0.6-2-1.5-3.5-2.8-4.5c-0.8-0.6-1.7-0.9-2.9-0.9c-1.8,0-3.3,0.8-4.4,2.5c-2,3-3,6.9-3,12v1.7
			L1612.7,467.4L1612.7,467.4z"/>
		<path d="M1724.9,427.1v23.1h-2c-1.5-6.1-4.3-10.7-8.5-13.9c-4.2-3.2-8.8-4.8-14-4.8c-4.4,0-8.3,1.2-12,3.6c-3.6,2.4-6.3,5.5-8,9.4
			c-2.2,4.9-3.3,10.5-3.3,16.5s0.8,11.4,2.3,16.3c1.6,4.9,4.1,8.6,7.4,11.1s7.7,3.8,13.1,3.8c4.4,0,8.4-0.9,12.1-2.7
			c3.6-1.8,7.5-5,11.6-9.5v5.8c-3.9,3.9-8,6.7-12.3,8.5c-4.2,1.7-9.2,2.7-14.8,2.7c-7.4,0-14.1-1.4-19.8-4.2
			c-5.8-2.9-10.2-7-13.4-12.3c-3.2-5.3-4.7-11.1-4.7-17c0-6.4,1.7-12.4,5.2-18.1s8.2-10.2,14.2-13.3c5.9-3.2,12.2-4.7,18.9-4.7
			c4.9,0,10.1,1,15.6,3c3.2,1.2,5.2,1.7,6.1,1.7c1.1,0,2-0.4,2.9-1.1c0.8-0.8,1.4-2,1.6-3.6L1724.9,427.1L1724.9,427.1z"/>
		<path d="M1753.2,448c4.2,0,8.1,1.1,11.7,3.1s6.4,5,8.3,8.8s2.8,8,2.8,12.5c0,6.5-1.7,12-5.2,16.4c-4.2,5.3-10,8-17.3,8
			s-12.8-2.4-16.7-7.3s-5.9-10.5-5.9-16.9s2-12.3,6-17.3C1740.7,450.4,1746.2,448,1753.2,448L1753.2,448z M1753.4,451.5
			c-1.7,0-3.3,0.6-4.5,1.9c-1.3,1.3-2,3.8-2.5,7.5c-0.4,3.7-0.6,8.9-0.6,15.5c0,3.5,0.2,6.8,0.8,9.8c0.4,2.3,1.2,4.1,2.4,5.3
			c1.2,1.2,2.7,1.8,4.2,1.8s2.8-0.4,3.9-1.2c1.4-1.1,2.2-2.7,2.7-4.7c0.7-3.1,1.1-9.4,1.1-18.9c0-5.6-0.3-9.4-1-11.5
			c-0.7-2-1.6-3.6-2.9-4.5C1756,451.8,1754.8,451.5,1753.4,451.5L1753.4,451.5z"/>
		<path d="M1826.4,449.3v36c0,3.5,0.3,5.7,1.1,6.6c0.7,0.8,2,1.4,4.2,1.7v1.7H1812v-6.1c-2.3,2.7-4.6,4.5-6.9,5.8
			c-2.3,1.2-4.8,1.8-7.7,1.8s-5.2-0.8-7.3-2.3c-2.1-1.6-3.6-3.5-4.2-5.6s-1.1-5.8-1.1-11.1v-18.3c0-3.5-0.3-5.6-1-6.5
			c-0.7-0.8-2-1.4-4.2-1.7v-1.8h19.6v31.4c0,3.3,0.2,5.4,0.5,6.4s0.8,1.7,1.5,2.2s1.5,0.8,2.4,0.8c1.2,0,2.3-0.3,3.3-0.9
			c1.4-0.8,3-2.6,4.9-5.2v-24.6c0-3.5-0.3-5.6-1-6.5c-0.7-0.8-2-1.4-4.2-1.7v-1.8L1826.4,449.3L1826.4,449.3z"/>
		<path d="M1856.8,449.3v6c2.5-2.6,4.8-4.4,7.1-5.6c2.3-1.2,4.7-1.7,7.3-1.7c3.1,0,5.8,0.8,7.8,2.5s3.4,3.7,4.1,6.1
			c0.5,1.9,0.8,5.5,0.8,10.8v17.9c0,3.6,0.3,5.8,1,6.6c0.7,0.8,2,1.4,4.2,1.7v1.7h-24.4v-1.7c1.8-0.2,3.1-1,3.9-2.2
			c0.5-0.8,0.8-2.9,0.8-6.1v-20.5c0-3.8-0.2-6.1-0.5-7.1s-0.8-1.7-1.6-2.3c-0.8-0.5-1.6-0.8-2.4-0.8c-3,0-5.7,2-8.3,6.1v24.6
			c0,3.4,0.3,5.6,1,6.5s1.9,1.5,3.7,1.7v1.7h-24.4v-1.7c2-0.2,3.5-0.8,4.3-1.9c0.6-0.8,0.9-2.9,0.9-6.4v-26c0-3.5-0.3-5.6-1-6.5
			c-0.7-0.8-2-1.4-4.2-1.7v-1.8L1856.8,449.3L1856.8,449.3z"/>
		<path d="M1931.6,483.4l1.6,1.2c-2.3,4.1-5.1,7.1-8.5,9.1s-7,3-10.8,3c-6.4,0-11.6-2.3-15.5-6.9s-5.8-10.2-5.8-16.7
			s1.7-11.7,5.2-16.5c4.2-5.8,10.1-8.6,17.5-8.6c5,0,8.9,1.2,11.9,3.6s4.4,5.1,4.4,8c0,1.9-0.6,3.3-1.7,4.5s-2.7,1.7-4.7,1.7
			s-3.7-0.6-5-1.9s-2.1-3.6-2.4-6.8c-0.2-2-0.7-3.5-1.5-4.3s-1.7-1.2-2.8-1.2c-1.7,0-3,0.8-4.2,2.5c-1.8,2.5-2.7,6.4-2.7,11.6
			c0,4.3,0.8,8.5,2.2,12.4c1.4,3.9,3.4,6.9,5.9,8.9c1.9,1.4,4.2,2.1,6.7,2.1c1.7,0,3.3-0.4,4.8-1.1
			C1927.9,487,1929.6,485.5,1931.6,483.4L1931.6,483.4z"/>
		<path d="M1955.7,449.3v36.4c0,3.3,0.4,5.3,1.2,6.2c0.8,0.9,2.3,1.4,4.6,1.5v1.7h-26.1v-1.7c2.1-0.1,3.7-0.7,4.8-1.7
			c0.7-0.8,1.1-2.7,1.1-6v-26.9c0-3.3-0.4-5.3-1.2-6.2c-0.8-0.9-2.3-1.4-4.6-1.5v-1.8H1955.7L1955.7,449.3z M1948.5,427.1
			c2.2,0,4.2,0.8,5.7,2.3s2.3,3.3,2.3,5.4s-0.8,3.9-2.3,5.4c-1.6,1.4-3.5,2.2-5.7,2.2s-4.1-0.8-5.6-2.2c-1.5-1.5-2.3-3.3-2.3-5.4
			s0.8-3.9,2.3-5.4C1944.4,427.8,1946.3,427.1,1948.5,427.1L1948.5,427.1z"/>
		<path d="M1985.7,428.7v57.1c0,3.3,0.4,5.3,1.2,6.2c0.8,0.9,2.3,1.4,4.6,1.5v1.7h-26.1v-1.7c2.1-0.1,3.7-0.7,4.8-1.7
			c0.7-0.8,1.1-2.7,1.1-6v-47.6c0-3.2-0.4-5.3-1.2-6.1c-0.8-0.9-2.3-1.4-4.6-1.5v-1.8L1985.7,428.7L1985.7,428.7z"/>
	</g>
</g>
</svg>
